<svg width="40" height="39" viewBox="0 0 40 39" fill="none" xmlns="http://www.w3.org/2000/svg">
<path fill-rule="evenodd" clip-rule="evenodd" d="M0.882324 17.0588C0.882324 9.01722 0.882324 4.99641 3.38053 2.49821C5.87874 0 9.89954 0 17.9411 0H22.2059C30.2475 0 34.2683 0 36.7665 2.49821C39.2647 4.99641 39.2647 9.01722 39.2647 17.0588V21.3235C39.2647 29.3651 39.2647 33.3859 36.7665 35.8841C34.2683 38.3824 30.2475 38.3824 22.2059 38.3824H17.9411C9.89954 38.3824 5.87874 38.3824 3.38053 35.8841C0.882324 33.3859 0.882324 29.3651 0.882324 21.3235V17.0588ZM2.58821 15.3529C2.58821 8.91966 2.58821 5.70301 4.58677 3.70445C6.58534 1.70588 9.80198 1.70588 16.2353 1.70588H23.9117C30.345 1.70588 33.5617 1.70588 35.5602 3.70445C37.5588 5.70301 37.5588 8.91966 37.5588 15.3529V23.0294C37.5588 29.4627 37.5588 32.6793 35.5602 34.6779C33.5617 36.6765 30.345 36.6765 23.9117 36.6765H16.2353C9.80198 36.6765 6.58534 36.6765 4.58677 34.6779C2.58821 32.6793 2.58821 29.4627 2.58821 23.0294V15.3529ZM10.4464 26.6734L11.7071 21.9299H16.8026L18.1159 26.6998C18.142 26.8043 18.2209 26.8537 18.3521 26.8537H20.9786C21.1101 26.8537 21.1362 26.7752 21.1101 26.644L16.0407 9.5396C16.0143 9.40872 15.9618 9.38235 15.857 9.38235H12.5213C12.4424 9.38235 12.3899 9.43477 12.3899 9.5396C12.3638 10.3257 12.3112 10.5531 12.2323 10.8412L7.71479 26.618C7.68837 26.8013 7.71479 26.8537 7.87238 26.8537H10.2098C10.3674 26.8537 10.42 26.8043 10.4464 26.6734ZM15.5919 17.1462C15.8223 18.0072 16.031 18.7874 16.1745 19.3514L12.3682 19.3499C12.4461 19.0577 12.5268 18.7561 12.6092 18.4482C13.222 16.1593 13.9275 13.5239 14.2284 11.8838H14.2545C14.522 13.1468 15.1052 15.3268 15.5919 17.1462ZM28.1747 24.5673C25.7584 24.5673 24.7339 23.1261 24.7075 20.9769V20.9768H28.8576C30.2498 20.9768 31.1954 20.9244 31.5106 20.8719C31.6417 20.8459 31.6943 20.7997 31.7207 20.6688C31.7993 20.3807 31.8518 19.7515 31.8518 18.9915C31.8518 16.6329 30.6436 13.724 27.1768 13.724C23.762 13.724 21.8185 16.7901 21.8185 20.5376C21.8185 23.9971 23.3946 27.0894 27.5969 27.0894C28.9101 27.0894 29.9569 26.9061 30.7973 26.4866C30.9023 26.408 30.9548 26.3296 30.9548 26.1723V24.1804C30.9548 24.0495 30.8759 24.0232 30.7708 24.0756C29.9303 24.4426 29.1201 24.5673 28.1747 24.5673ZM29.1202 18.7669C29.0416 18.793 28.7524 18.793 27.9381 18.793H24.7339C24.8917 17.3778 25.5483 16.0414 27.0717 16.0414C28.7263 16.0414 29.1467 17.6287 29.1467 18.4936C29.1467 18.53 29.141 18.5689 29.1349 18.6106C29.1278 18.6588 29.1202 18.7107 29.1202 18.7669Z" fill="#9D9DAA"/>
</svg>
