<svg width="39" height="39" viewBox="0 0 39 39" fill="none" xmlns="http://www.w3.org/2000/svg">
<path fill-rule="evenodd" clip-rule="evenodd" d="M0 17.0588C0 9.01722 0 4.99641 2.49821 2.49821C4.99641 0 9.01722 0 17.0588 0H21.3235C29.3651 0 33.3859 0 35.8841 2.49821C38.3824 4.99641 38.3824 9.01722 38.3824 17.0588V21.3235C38.3824 29.3651 38.3824 33.3859 35.8841 35.8841C33.3859 38.3824 29.3651 38.3824 21.3235 38.3824H17.0588C9.01722 38.3824 4.99641 38.3824 2.49821 35.8841C0 33.3859 0 29.3651 0 21.3235V17.0588ZM1.70588 15.3529C1.70588 8.91966 1.70588 5.70301 3.70445 3.70445C5.70301 1.70588 8.91966 1.70588 15.3529 1.70588H23.0294C29.4627 1.70588 32.6793 1.70588 34.6779 3.70445C36.6765 5.70301 36.6765 8.91966 36.6765 15.3529V23.0294C36.6765 29.4627 36.6765 32.6793 34.6779 34.6779C32.6793 36.6765 29.4627 36.6765 23.0294 36.6765H15.3529C8.91966 36.6765 5.70301 36.6765 3.70445 34.6779C1.70588 32.6793 1.70588 29.4627 1.70588 23.0294V15.3529ZM25.9128 9.38235C24.9854 9.38235 24.2699 9.99181 24.2699 11.0252C24.2699 12.0852 24.9324 12.6681 25.8863 12.6681C26.8668 12.6681 27.5557 12.0852 27.5557 11.0252C27.5557 10.0448 26.8933 9.38235 25.9128 9.38235ZM12.566 22.5605L11.2941 27.3756C11.2678 27.508 11.2146 27.539 11.0558 27.539H8.69697C8.5383 27.539 8.51197 27.486 8.5383 27.3005L13.096 11.3296C13.1755 11.0381 13.2285 10.7872 13.255 9.9923C13.255 9.8863 13.308 9.83331 13.3876 9.83331H16.7528C16.8588 9.83331 16.9118 9.8598 16.9384 9.9923L22.0524 27.327C22.0789 27.4593 22.0524 27.539 21.9199 27.539H19.2701C19.1378 27.539 19.0581 27.508 19.0318 27.402L17.7069 22.5605H12.5662H12.566ZM16.5375 18.0026L16.5374 18.0023L16.5374 18.0023C16.0412 16.1119 15.4201 13.7455 15.1365 12.4028H15.11C14.7728 14.2436 13.9538 17.3236 13.2983 19.7887L13.2552 19.9508H17.0444C16.9154 19.4426 16.7365 18.7609 16.5375 18.0026ZM24.4498 14.6761C24.4498 14.5436 24.5028 14.4906 24.6353 14.4906H27.155C27.2875 14.4906 27.3405 14.5436 27.3405 14.6761V27.3535C27.3405 27.486 27.314 27.539 27.155 27.539H24.6618C24.5028 27.539 24.4498 27.4593 24.4498 27.327V14.6761Z" fill="#9D9DAA"/>
</svg>
