<svg width="40" height="39" viewBox="0 0 40 39" fill="none" xmlns="http://www.w3.org/2000/svg">
<path fill-rule="evenodd" clip-rule="evenodd" d="M3.26286 2.49821C0.764648 4.99641 0.764648 9.01722 0.764648 17.0588V21.3235C0.764648 29.3651 0.764648 33.3859 3.26286 35.8841C5.76106 38.3824 9.78187 38.3824 17.8235 38.3824H22.0882C30.1298 38.3824 34.1506 38.3824 36.6488 35.8841C39.147 33.3859 39.147 29.3651 39.147 21.3235V17.0588C39.147 9.01722 39.147 4.99641 36.6488 2.49821C34.1506 0 30.1298 0 22.0882 0H17.8235C9.78187 0 5.76106 0 3.26286 2.49821ZM9.7222 22.6061C9.7222 14.9052 14.9329 4.83778 20.3824 4.83778C25.8318 4.83778 31.0425 14.9052 31.0425 22.6061C31.0425 28.5033 26.2796 33.2663 20.3824 33.2663C14.4852 33.2663 9.7222 28.5033 9.7222 22.6061ZM15.0523 22.6061C15.0523 25.5441 17.4444 27.9362 20.3824 27.9362C23.3203 27.9362 25.7124 25.5441 25.7124 22.6061C25.7124 18.6491 23.0133 13.7198 20.3824 13.7198C17.7514 13.7198 15.0523 18.6491 15.0523 22.6061Z" fill="#9D9DAA"/>
</svg>
