<svg width="147" height="188" viewBox="0 0 147 188" fill="none" xmlns="http://www.w3.org/2000/svg">
<path d="M79.5 49C92 49 103.333 51.9167 113.5 57.75C123.833 63.4167 131.917 71.5 137.75 82C143.583 92.3333 146.5 104.417 146.5 118.25C146.5 132.083 143.583 144.25 137.75 154.75C131.917 165.083 123.833 173.167 113.5 179C103.333 184.667 92 187.5 79.5 187.5C64.4403 187.5 52.3073 183.635 43.1011 175.903C40.9491 174.096 37.25 175.513 37.25 178.323V182.5C37.25 184.157 35.9069 185.5 34.25 185.5H3C1.34315 185.5 0 184.157 0 182.5V3C0 1.34315 1.34315 0 3 0H36C37.6569 0 39 1.34315 39 3V57.4813C39 60.2246 42.5102 61.645 44.6554 59.9352C53.8028 52.6451 65.4177 49 79.5 49ZM72.75 155.5C82.75 155.5 90.9167 152.167 97.25 145.5C103.75 138.667 107 129.583 107 118.25C107 106.917 103.75 97.9167 97.25 91.25C90.9167 84.4167 82.75 81 72.75 81C62.75 81 54.5 84.4167 48 91.25C41.6667 97.9167 38.5 106.917 38.5 118.25C38.5 129.583 41.6667 138.667 48 145.5C54.5 152.167 62.75 155.5 72.75 155.5Z" fill="url(#paint0_linear)"/>
<defs>
<linearGradient id="paint0_linear" x1="0" y1="0" x2="181.933" y2="142.15" gradientUnits="userSpaceOnUse">
<stop stop-color="#C12D63"/>
<stop offset="1" stop-color="#833882"/>
</linearGradient>
</defs>
</svg>
