<svg width="40" height="39" viewBox="0 0 40 39" fill="none" xmlns="http://www.w3.org/2000/svg">
<path fill-rule="evenodd" clip-rule="evenodd" d="M3.46891 2.49821C0.970703 4.99641 0.970703 9.01722 0.970703 17.0588V21.3235C0.970703 29.3651 0.970703 33.3859 3.46891 35.8841C5.96712 38.3824 9.98792 38.3824 18.0295 38.3824C26.0711 38.3824 14.2526 38.3824 22.2942 38.3824C30.3358 38.3824 34.3566 38.3824 36.8549 35.8841C39.3531 33.3859 39.3531 29.3651 39.3531 21.3235V17.0588C39.3531 9.01722 39.3531 4.99641 36.8549 2.49821C34.3566 0 30.3358 0 22.2942 0H18.0295C9.98792 0 5.96712 0 3.46891 2.49821ZM16.3565 10.9043V16.4902H21.5724C22.4911 16.4902 23.2456 16.2672 23.836 15.8212C24.4266 15.3753 24.7219 14.6505 24.7219 13.647C24.7219 13.0896 24.6233 12.6325 24.4266 12.2756C24.2297 11.9189 23.9672 11.6402 23.6393 11.4394C23.3112 11.2387 22.9338 11.0994 22.5074 11.0214C22.0809 10.9433 21.6382 10.9043 21.1788 10.9043H16.3565ZM11.206 30.7059V6.82353H22.2286C23.344 6.82353 24.361 6.92384 25.2795 7.1246C26.1981 7.32521 26.9854 7.65417 27.6414 8.11133C28.2976 8.56848 28.8061 9.17617 29.167 9.93425C29.5278 10.6925 29.7083 11.629 29.7083 12.7439C29.7083 13.9482 29.4403 14.9515 28.9046 15.7543C28.3688 16.5571 27.5758 17.215 26.526 17.7278C27.9695 18.1515 29.0467 18.8929 29.7575 19.9522C30.4682 21.0113 30.8236 22.2879 30.8236 23.782C30.8236 24.9861 30.5941 26.0286 30.1347 26.9095C29.6755 27.7902 29.0575 28.5095 28.2813 29.0669C27.5048 29.6244 26.6191 30.0369 25.624 30.3045C24.6289 30.5721 23.6065 30.7059 22.5567 30.7059H11.206ZM16.3565 20.0691V26.6251H21.8677C22.3708 26.6251 22.8518 26.5749 23.3112 26.4747C23.7704 26.3742 24.1751 26.2071 24.525 25.9729C24.8749 25.7388 25.1538 25.4209 25.3615 25.0196C25.5693 24.6182 25.6733 24.1054 25.6733 23.4809C25.6733 22.2545 25.3342 21.3793 24.6563 20.8553C23.9782 20.3311 23.0815 20.0691 21.9661 20.0691H16.3565Z" fill="#9D9DAA"/>
</svg>
