<svg width="40" height="39" viewBox="0 0 40 39" fill="none" xmlns="http://www.w3.org/2000/svg">
<path fill-rule="evenodd" clip-rule="evenodd" d="M21.9705 0.852941H17.7058C13.6609 0.852941 10.713 0.854753 8.46037 1.15761C6.23227 1.45717 4.81251 2.03712 3.7483 3.10133C2.68409 4.16554 2.10414 5.5853 1.80458 7.81339C1.50173 10.066 1.49991 13.0139 1.49991 17.0588V21.3235C1.49991 25.3684 1.50173 28.3163 1.80458 30.569C2.10414 32.7971 2.68409 34.2168 3.7483 35.281C4.81251 36.3452 6.23227 36.9252 8.46037 37.2247C10.713 37.5276 13.6609 37.5294 17.7058 37.5294H21.9705C26.0154 37.5294 28.9633 37.5276 31.2159 37.2247C33.444 36.9252 34.8638 36.3452 35.928 35.281C36.9922 34.2168 37.5722 32.7971 37.8717 30.569C38.1746 28.3163 38.1764 25.3684 38.1764 21.3235V17.0588C38.1764 13.0139 38.1746 10.066 37.8717 7.81339C37.5722 5.5853 36.9922 4.16554 35.928 3.10133C34.8638 2.03712 33.444 1.45717 31.2159 1.15761C28.9633 0.854753 26.0154 0.852941 21.9705 0.852941ZM3.14518 2.49821C0.646973 4.99641 0.646973 9.01722 0.646973 17.0588V21.3235C0.646973 29.3651 0.646973 33.3859 3.14518 35.8841C5.64339 38.3824 9.66419 38.3824 17.7058 38.3824H21.9705C30.0121 38.3824 34.0329 38.3824 36.5311 35.8841C39.0293 33.3859 39.0293 29.3651 39.0293 21.3235V17.0588C39.0293 9.01722 39.0293 4.99641 36.5311 2.49821C34.0329 0 30.0121 0 21.9705 0H17.7058C9.66419 0 5.64339 0 3.14518 2.49821Z" fill="#9D9DAA"/>
<path fill-rule="evenodd" clip-rule="evenodd" d="M30.1175 7.40332L28.2458 28.3716L19.8322 30.7041L11.4418 28.3749L9.57202 7.40332H30.1175ZM23.0029 19.4694L22.7043 22.8052L19.845 23.5769V23.5757L19.8337 23.5787L16.9691 22.8052L16.786 20.7538H15.3941H14.2041L14.5644 24.7924L19.8331 26.255L19.8356 26.2543V26.2554L25.1085 24.794L25.1472 24.3594L25.7516 17.588L25.8144 16.8973L26.2787 11.6913H19.8448H19.8359H19.8356H13.3953L13.6291 14.2635L19.8356 14.2635L19.8448 14.2635L23.46 14.2635L23.2259 16.8973H19.8447V16.8956H13.8584L14.0889 19.4677H19.8356V19.4694H23.0029Z" fill="#646472"/>
<path fill-rule="evenodd" clip-rule="evenodd" d="M28.2428 9.11914L26.6433 27.0375L19.8447 28.9224V26.2528L25.1085 24.7939L25.1472 24.3594L25.7516 17.5879L25.8143 16.8972L26.2787 11.6913H19.8447V9.11914H28.2428ZM19.8447 14.2634V16.8972H23.2258L23.4599 14.2634H19.8447ZM19.8447 23.5769L22.7042 22.8051L23.0028 19.4693H19.8447V23.5769Z" fill="#9D9DAA"/>
</svg>
