<svg width="307" height="308" viewBox="0 0 307 308" fill="none" xmlns="http://www.w3.org/2000/svg">
<path opacity="0.2" d="M306.266 155.205C306.266 159.742 305.942 166.066 305.294 174.178C305.211 175.214 304.345 176.011 303.306 176.011H72.519C71.2696 176.011 70.3259 177.147 70.5829 178.37C75.0009 199.386 85.5029 216.219 102.089 228.871C119.664 241.617 141.354 247.99 167.156 247.99C199.281 247.99 225.882 237.63 246.96 216.908C247.791 216.09 249.145 216.129 249.91 217.01L284.958 257.39C285.601 258.131 285.612 259.229 284.974 259.973C271.689 275.451 255.04 287.202 235.029 295.227C214.461 303.474 191.276 307.598 165.474 307.598C132.566 307.598 103.585 301.037 78.5298 287.916C53.4751 274.795 34.0296 256.613 20.1934 233.37C6.73113 209.751 0 183.134 0 153.518C0 124.276 6.54415 98.034 19.6325 74.7907C33.0947 51.1726 51.6053 32.8029 75.1643 19.6818C98.7232 6.56059 125.274 0 154.816 0C183.984 0 209.974 6.56059 232.785 19.6818C255.97 32.4281 273.919 50.6103 286.634 74.2284C299.722 97.4716 306.266 124.464 306.266 155.205ZM154.816 56.2336C132.379 56.2336 113.307 62.9817 97.6013 76.4777C82.8034 89.1418 73.5791 105.997 69.9285 127.042C69.7195 128.247 70.6564 129.337 71.8793 129.337H237.225C238.436 129.337 239.37 128.266 239.179 127.07C235.876 106.366 226.826 89.5016 212.031 76.4777C196.699 62.9817 177.627 56.2336 154.816 56.2336Z" fill="url(#paint0_linear)"/>
<defs>
<linearGradient id="paint0_linear" x1="153.133" y1="0" x2="153.133" y2="307.598" gradientUnits="userSpaceOnUse">
<stop stop-color="#C12D63"/>
<stop offset="1" stop-color="#833882"/>
</linearGradient>
</defs>
</svg>
