<svg width="170" height="171" viewBox="0 0 170 171" fill="none" xmlns="http://www.w3.org/2000/svg">
<path d="M169.689 86.1634C169.689 88.337 169.554 91.2525 169.284 94.9102C169.17 96.4662 167.868 97.6625 166.307 97.6625H42.4593C40.5821 97.6625 39.1604 99.3702 39.6239 101.189C42.3211 111.774 47.9675 120.336 56.5631 126.876C66.301 133.921 78.3181 137.443 92.6143 137.443C109.668 137.443 123.912 132.186 135.347 121.673C136.635 120.489 138.659 120.545 139.807 121.865L156.82 141.416C157.788 142.529 157.809 144.186 156.821 145.281C149.643 153.237 140.776 159.327 130.219 163.549C118.824 168.107 105.978 170.386 91.6819 170.386C73.4491 170.386 57.3918 166.761 43.5101 159.509C29.6283 152.257 18.8544 142.209 11.1883 129.363C3.72943 116.31 0 101.599 0 85.2311C0 69.0702 3.62584 54.5668 10.8775 41.721C18.3364 28.668 28.5923 18.5157 41.6453 11.264C54.6984 4.01231 69.4089 0.386475 85.777 0.386475C101.938 0.386475 116.338 4.01231 128.976 11.264C141.822 18.3085 151.767 28.3572 158.812 41.4102C166.063 54.2561 169.689 69.1738 169.689 86.1634ZM85.777 31.4651C73.3455 31.4651 62.7788 35.1945 54.0768 42.6534C46.3936 49.2122 41.4222 57.8049 39.1627 68.4315C38.7807 70.2285 40.1927 71.8673 42.0298 71.8673H129.263C131.083 71.8673 132.491 70.2575 132.134 68.473C130.043 58.0035 125.157 49.397 117.477 42.6534C108.982 35.1945 98.4156 31.4651 85.777 31.4651Z" fill="url(#paint0_linear)"/>
<defs>
<linearGradient id="paint0_linear" x1="0" y1="0.386475" x2="170" y2="170.075" gradientUnits="userSpaceOnUse">
<stop stop-color="#C12D63"/>
<stop offset="1" stop-color="#833882"/>
</linearGradient>
</defs>
</svg>
