<svg width="39" height="39" viewBox="0 0 39 39" fill="none" xmlns="http://www.w3.org/2000/svg">
<path fill-rule="evenodd" clip-rule="evenodd" d="M21.647 0.852941H17.3823C13.3374 0.852941 10.3895 0.854753 8.13688 1.15761C5.90878 1.45717 4.48903 2.03712 3.42481 3.10133C2.3606 4.16554 1.78066 5.5853 1.4811 7.81339C1.17824 10.066 1.17643 13.0139 1.17643 17.0588V21.3235C1.17643 25.3684 1.17824 28.3163 1.4811 30.569C1.78066 32.7971 2.3606 34.2168 3.42481 35.281C4.48903 36.3452 5.90878 36.9252 8.13688 37.2247C10.3895 37.5276 13.3374 37.5294 17.3823 37.5294H21.647C25.6919 37.5294 28.6398 37.5276 30.8924 37.2247C33.1205 36.9252 34.5403 36.3452 35.6045 35.281C36.6687 34.2168 37.2487 32.7971 37.5482 30.569C37.8511 28.3163 37.8529 25.3684 37.8529 21.3235V17.0588C37.8529 13.0139 37.8511 10.066 37.5482 7.81339C37.2487 5.5853 36.6687 4.16554 35.6045 3.10133C34.5403 2.03712 33.1205 1.45717 30.8924 1.15761C28.6398 0.854753 25.6919 0.852941 21.647 0.852941ZM2.82169 2.49821C0.323486 4.99641 0.323486 9.01722 0.323486 17.0588V21.3235C0.323486 29.3651 0.323486 33.3859 2.82169 35.8841C5.3199 38.3824 9.3407 38.3824 17.3823 38.3824H21.647C29.6886 38.3824 33.7094 38.3824 36.2076 35.8841C38.7058 33.3859 38.7058 29.3651 38.7058 21.3235V17.0588C38.7058 9.01722 38.7058 4.99641 36.2076 2.49821C33.7094 0 29.6886 0 21.647 0H17.3823C9.3407 0 5.3199 0 2.82169 2.49821Z" fill="#9D9DAA"/>
<path d="M15.847 31.0471C18.1082 31.0471 19.9412 29.2141 19.9412 26.953V22.8589H15.847C13.5859 22.8589 11.7529 24.6919 11.7529 26.953C11.7529 29.2141 13.5859 31.0471 15.847 31.0471Z" fill="#9D9DAA"/>
<path d="M11.7529 18.7648C11.7529 16.5037 13.5859 14.6707 15.847 14.6707H19.9412V22.8589H15.847C13.5859 22.8589 11.7529 21.0259 11.7529 18.7648Z" fill="#646472"/>
<path d="M11.7529 10.5765C11.7529 8.31542 13.5859 6.48242 15.847 6.48242H19.9412V14.6707H15.847C13.5859 14.6707 11.7529 12.8377 11.7529 10.5765Z" fill="#646472"/>
<path d="M19.9412 6.48242H24.0353C26.2964 6.48242 28.1294 8.31542 28.1294 10.5765C28.1294 12.8377 26.2964 14.6707 24.0353 14.6707H19.9412V6.48242Z" fill="#9D9DAA"/>
<path d="M28.1294 18.7648C28.1294 21.0259 26.2964 22.8589 24.0353 22.8589C21.7742 22.8589 19.9412 21.0259 19.9412 18.7648C19.9412 16.5037 21.7742 14.6707 24.0353 14.6707C26.2964 14.6707 28.1294 16.5037 28.1294 18.7648Z" fill="#9D9DAA"/>
</svg>
