<svg width="18" height="17" viewBox="0 0 18 17" fill="none" xmlns="http://www.w3.org/2000/svg">
<path fill-rule="evenodd" clip-rule="evenodd" d="M2.50012 2.49988H0.500122V7.49988H2.50012V16.4999H3.50012V7.49988H5.50012V2.49988H3.50012V-0.00012207H2.50012V2.49988ZM8.50012 8.99988H6.50012V13.9999H8.50012V16.4999H9.50012V13.9999H11.5001V8.99988H9.50012V-0.00012207H8.50012V8.99988ZM14.5001 2.49988H12.5001V7.49988H14.5001V16.4999H15.5001V7.49988H17.5001V2.49988H15.5001V-0.00012207H14.5001V2.49988ZM1.50012 3.49988V6.49988H4.50012V3.49988H1.50012ZM13.5001 3.49988V6.49988H16.5001V3.49988H13.5001ZM7.50012 9.99988V12.9999H10.5001V9.99988H7.50012Z" fill="url(#paint0_linear)"/>
<defs>
<linearGradient id="paint0_linear" x1="0.500122" y1="-0.00012207" x2="16.9928" y2="16.9923" gradientUnits="userSpaceOnUse">
<stop stop-color="#C12D63"/>
<stop offset="1" stop-color="#833882"/>
</linearGradient>
</defs>
</svg>
