<svg width="21" height="21" viewBox="0 0 21 21" fill="none" xmlns="http://www.w3.org/2000/svg">
<path fill-rule="evenodd" clip-rule="evenodd" d="M2.49901 3.73011H0.0372314V9.88455H2.49901V20.9625H3.72989V9.88455H6.19167V3.73011H3.72989V0.652893H2.49901V3.73011ZM9.88433 11.7309H7.42256V17.8853H9.88433V20.9625H11.1152V17.8853H13.577V11.7309H11.1152V0.652893H9.88433V11.7309ZM17.2697 3.73011H14.8079V9.88455H17.2697V20.9625H18.5005V9.88455H20.9623V3.73011H18.5005V0.652893H17.2697V3.73011ZM1.26812 4.961V8.65366H4.96078V4.961H1.26812ZM16.0388 4.961V8.65366H19.7314V4.961H16.0388ZM8.65344 12.9618V16.6544H12.3461V12.9618H8.65344Z" fill="white" fill-opacity="0.8"/>
</svg>
