<svg width="314" height="314" viewBox="0 0 314 314" fill="none" xmlns="http://www.w3.org/2000/svg">
<path fill-rule="evenodd" clip-rule="evenodd" d="M209.724 0.0241699C209.705 0.136849 209.623 0.45007 209.463 0.9933C209.307 1.52219 209.086 2.23909 208.802 3.136C208.235 4.92932 207.422 7.43413 206.387 10.5771C204.317 16.8625 201.364 25.6944 197.733 36.4785C194.862 45.0023 191.568 54.7453 187.951 65.4137C137.908 48.4263 83.575 75.0833 66.3501 124.989C55.6804 121.372 45.9361 118.077 37.4111 115.206C26.6264 111.574 17.792 108.62 11.5033 106.55C8.35915 105.515 5.84989 104.7 4.05085 104.131C3.15157 103.847 2.42772 103.623 1.88987 103.465C1.36635 103.31 0.986844 103.207 0.799392 103.176L0.637634 104.163C0.750315 104.181 1.06354 104.263 1.60677 104.424C2.13566 104.58 2.85256 104.801 3.74947 105.084C5.54279 105.651 8.0476 106.465 11.1905 107.5C17.476 109.569 26.3078 112.522 37.0919 116.154C45.6162 119.024 55.3597 122.319 66.0287 125.936C49.3501 175.906 76.0771 230.018 125.936 247.122C117.652 271.305 109.913 293.868 103.392 312.864L104.338 313.188C110.859 294.192 118.599 271.627 126.884 247.442C176.647 263.949 230.47 237.447 247.734 187.949C271.917 196.234 294.481 203.973 313.477 210.495L313.802 209.549C294.806 203.027 272.242 195.288 248.058 187.003C264.872 137.166 238.44 83.1235 188.896 65.7399C192.514 55.069 195.809 45.3236 198.68 36.7976C202.312 26.0129 205.266 17.1785 207.337 10.8898C208.372 7.74569 209.187 5.23642 209.755 3.43738C210.04 2.53811 210.263 1.81425 210.422 1.2764C210.576 0.752886 210.68 0.373378 210.71 0.185926L209.724 0.0241699ZM187.63 66.3607C138.11 49.5507 84.3447 75.9276 67.2972 125.31C83.39 130.767 101.547 136.943 120.776 143.496C132.571 147.516 144.768 151.678 157.14 155.903C161.329 143.634 165.456 131.539 169.443 119.84C175.997 100.611 182.174 82.4533 187.63 66.3607ZM66.9757 126.257C50.4741 175.705 76.9224 229.25 126.26 246.176C136.066 217.554 146.621 186.706 156.817 156.849C144.445 152.624 132.248 148.463 120.454 144.443C101.225 137.889 83.0679 131.713 66.9757 126.257ZM127.208 246.496C176.449 262.824 229.703 236.601 246.787 187.625C218.262 177.853 187.526 167.336 157.763 157.172C147.567 187.028 137.013 217.874 127.208 246.496ZM247.112 186.679C218.586 176.907 187.85 166.39 158.086 156.226C162.276 143.957 166.403 131.862 170.39 120.163C176.943 100.935 183.119 82.7791 188.575 66.687C237.595 83.8929 263.746 137.366 247.112 186.679Z" fill="url(#paint0_linear)"/>
<defs>
<linearGradient id="paint0_linear" x1="157.22" y1="0.0241699" x2="157.22" y2="313.188" gradientUnits="userSpaceOnUse">
<stop stop-color="#EF7095"/>
<stop offset="1" stop-color="#E27AC7"/>
</linearGradient>
</defs>
</svg>
