<svg width="111" height="86" viewBox="0 0 111 86" fill="none" xmlns="http://www.w3.org/2000/svg">
<path fill-rule="evenodd" clip-rule="evenodd" d="M93.077 3.17083C93.5209 2.48746 94.3002 2.0315 95.1929 2.0315C96.5906 2.0315 97.6984 3.14437 97.6984 4.48622C97.6984 4.97116 97.5559 5.42121 97.3088 5.80161L97.297 5.81975L91.6096 15.4489C91.3243 15.9319 91.4846 16.5548 91.9676 16.8401C92.4507 17.1254 93.0735 16.9651 93.3588 16.482L96.524 11.1231C97.5021 11.2428 98.2401 12.062 98.2401 13.0289C98.2401 13.6808 98.0234 14.4994 97.6104 15.1167L94.9121 18.8399C94.5829 19.2941 94.6843 19.9292 95.1385 20.2584C95.5928 20.5876 96.2279 20.4862 96.5571 20.032L97.9369 18.128C98.4197 18.3101 98.7818 18.7894 98.7818 19.3826C98.7818 19.8744 98.6231 20.4932 98.329 20.9521L96.2556 23.9274C95.9348 24.3877 96.0479 25.0208 96.5082 25.3415C96.9684 25.6623 97.6016 25.5492 97.9223 25.0889L100.015 22.0857L100.024 22.072C100.558 21.2507 100.813 20.2326 100.813 19.3826C100.813 18.1433 100.148 17.0428 99.1465 16.4591L99.2754 16.2813L99.2846 16.2676C99.9495 15.2846 100.272 14.0555 100.272 13.0289C100.272 11.2966 99.1504 9.83851 97.6011 9.29952L99.0249 6.88891C99.4709 6.19447 99.7299 5.36912 99.7299 4.48622C99.7299 1.99469 97.6846 0 95.1929 0C93.5939 0 92.1838 0.819341 91.3758 2.06039L84.0528 13.1315C83.7433 13.5994 83.8717 14.2296 84.3396 14.5391C84.8075 14.8486 85.4376 14.7202 85.7471 14.2523L93.0724 3.1779L93.077 3.17083ZM56.1205 12.189C62.9849 12.189 69.1954 14.0343 74.4277 17.3533C74.3167 17.8541 74.5996 18.3682 75.0969 18.5349C75.6288 18.7132 76.2045 18.4266 76.3828 17.8947C76.6537 17.0866 77.088 16.1739 77.6186 15.5604C78.1489 14.9473 78.5643 14.8394 78.9493 14.9685C79.1192 15.0254 79.3218 15.1771 79.524 15.5256C79.7272 15.8757 79.8878 16.3573 79.9878 16.9231C80.1912 18.0751 80.1006 19.3158 79.8739 19.9921C79.8628 20.0252 79.8535 20.0585 79.8459 20.0918C79.8203 20.1134 79.7955 20.1364 79.7716 20.1609C79.3802 20.5628 79.3887 21.2058 79.7905 21.5973C81.4769 23.2399 83.0102 25.0757 84.3717 27.0866H36.1092C34.3812 27.0866 33.0967 28.565 33.0967 30.2403V30.5692C33.0967 32.0628 34.2437 33.3939 35.802 33.3939H35.9556C36.1788 33.3939 36.4759 33.609 36.4759 34.0227C36.4759 35.4255 37.5542 36.683 39.0277 36.683C39.2508 36.683 39.5479 36.8981 39.5479 37.3118V37.6407C39.5479 39.2252 40.7637 40.6299 42.4069 40.6299H56.0146C57.4033 40.6299 58.4128 39.4461 58.4128 38.1341C58.4128 37.8112 58.6411 37.6697 58.7794 37.6697H59.2402C60.7137 37.6697 61.792 36.4122 61.792 35.0094C61.792 34.5957 62.0891 34.3806 62.3122 34.3806C63.7857 34.3806 64.864 33.1232 64.864 31.7204V29.1181H66.3372V31.7204C66.3372 33.1232 67.4155 34.3806 68.889 34.3806C69.1121 34.3806 69.4093 34.5957 69.4093 35.0094C69.4093 36.4122 70.4875 37.6697 71.961 37.6697H72.4218C72.5601 37.6697 72.7885 37.8112 72.7885 38.1341C72.7885 39.4461 73.798 40.6299 75.1866 40.6299H88.7944C89.2846 40.6299 89.7368 40.5049 90.1301 40.2873C90.7637 42.9088 91.1186 45.5311 91.2136 48.116C91.2222 48.3508 91.3098 48.5641 91.45 48.7311C91.8585 50.7658 91.968 53.3614 91.5626 55.4621C91.3451 56.5896 90.9957 57.4864 90.542 58.0791C90.123 58.6265 89.6313 58.9036 88.9968 58.9131C87.9952 58.8358 87.352 58.5558 86.9106 58.1964C86.4581 57.8278 86.1291 57.3035 85.8832 56.5957C85.634 55.8781 85.4884 55.0257 85.3719 54.0523C85.3277 53.6826 85.2858 53.2736 85.2425 52.8508L85.2424 52.8508L85.2424 52.8507L85.2424 52.8506L85.2424 52.8502L85.2424 52.85L85.2424 52.8499L85.2423 52.8499L85.2423 52.8498L85.2423 52.8497L85.2423 52.8496L85.2423 52.8496L85.2423 52.8495L85.2423 52.8494C85.179 52.232 85.1127 51.5853 85.0318 50.9887C84.9564 50.4328 84.4447 50.0433 83.8888 50.1187C83.3329 50.1941 82.9434 50.7058 83.0188 51.2617C83.0991 51.8541 83.1557 52.4124 83.2136 52.9828C83.2566 53.4068 83.3002 53.8375 83.3548 54.2937C83.4753 55.3003 83.6407 56.3306 83.9642 57.2621C84.2911 58.2034 84.7964 59.0945 85.6277 59.7715C86.4645 60.4531 87.5437 60.8461 88.8903 60.9423L88.9264 60.9449H88.9626C89.1472 60.9449 89.3261 60.9332 89.4994 60.9106C85.3343 74.0751 74.0209 83.9685 58.829 83.9685C49.8453 83.9685 41.7661 82.0179 35.3548 78.3165C35.326 78.0739 35.2102 77.8409 35.011 77.6684C34.7197 77.4162 34.3259 77.359 33.9889 77.4852C33.2776 77.0291 32.5893 76.5499 31.925 76.0479C25.1088 70.8964 20.7684 63.3011 20.2291 53.4406C19.9944 49.1496 20.2188 47.5624 21.321 42.1883C21.4337 41.6388 21.0796 41.1019 20.5301 40.9892C19.9805 40.8765 19.4437 41.2306 19.331 41.7802C18.2109 47.2408 17.9526 49.0178 18.2006 53.5515C18.4902 58.8463 19.8213 63.5497 22.0124 67.6189C21.9872 67.6427 21.9629 67.668 21.9397 67.6948C20.6438 69.1915 20.3372 71.192 20.7613 73.1238C21.1854 75.0554 22.3461 76.988 24.1022 78.5085C25.8583 80.0289 27.9371 80.9011 29.9095 81.0443C31.4416 81.1556 32.9516 80.8247 34.1568 79.9702C40.9677 83.9547 49.4865 86 58.829 86C75.375 86 87.5627 74.9526 91.7146 60.6042C91.7877 60.3517 91.7584 60.0939 91.6511 59.8751C91.8326 59.7038 92.0007 59.5157 92.1552 59.3139C92.8759 58.3723 93.3094 57.1319 93.5573 55.847C94.0542 53.2718 93.8719 50.164 93.3382 47.8504C93.3141 47.7462 93.2749 47.6495 93.2232 47.562C93.0973 44.9652 92.722 42.3368 92.0808 39.7118C91.9894 39.3374 91.7014 39.0626 91.3534 38.9705C91.5465 38.5643 91.6533 38.1104 91.6533 37.6407V37.3118C91.6533 36.8981 91.9505 36.683 92.1736 36.683C93.6471 36.683 94.7253 35.4255 94.7253 34.0227C94.7253 33.609 95.0225 33.3939 95.2456 33.3939H95.3992C96.9575 33.3939 98.1046 32.0628 98.1046 30.5692V30.2403C98.1046 28.565 96.82 27.0866 95.092 27.0866H86.7964C85.33 24.7498 83.6485 22.6143 81.7744 20.7061C81.7837 20.6838 81.7922 20.661 81.8 20.6378C82.1572 19.5722 82.2369 17.9775 81.9883 16.5698C81.8622 15.8559 81.6412 15.1266 81.2811 14.506C80.92 13.8837 80.3778 13.3047 79.595 13.0423C78.0746 12.5326 76.8558 13.337 76.0822 14.2314C75.76 14.6038 75.4785 15.0275 75.237 15.4628C69.7295 12.0423 63.2388 10.1575 56.1205 10.1575C47.6776 10.1575 39.6111 14.1282 33.0868 20.1216C32.6737 20.5011 32.6465 21.1437 33.026 21.5568C33.4055 21.9699 34.048 21.9972 34.4612 21.6177C40.7236 15.8648 48.3218 12.189 56.1205 12.189ZM86.5382 29.1181H95.092C95.5696 29.1181 96.0731 29.5541 96.0731 30.2403V30.5692C96.0731 31.0737 95.7072 31.3624 95.3992 31.3624H95.2456C93.7721 31.3624 92.6938 32.6199 92.6938 34.0227C92.6938 34.4364 92.3967 34.6515 92.1736 34.6515C90.7001 34.6515 89.6218 35.909 89.6218 37.3118V37.6407C89.6218 38.2361 89.1871 38.5984 88.7944 38.5984H75.1866C75.0483 38.5984 74.82 38.457 74.82 38.1341C74.82 36.8221 73.8105 35.6382 72.4218 35.6382H71.961C71.7379 35.6382 71.4408 35.4232 71.4408 35.0094C71.4408 33.6066 70.3625 32.3492 68.889 32.3492C68.6659 32.3492 68.3687 32.1341 68.3687 31.7204V29.1181H85.9711C86.1535 29.171 86.3504 29.1729 86.5382 29.1181ZM23.1239 69.5145C25.1297 72.6663 27.6879 75.392 30.7002 77.6686C31.1858 78.0356 31.683 78.3908 32.1912 78.734C31.571 78.9753 30.8486 79.0757 30.0567 79.0182C28.5622 78.9096 26.8897 78.2347 25.4319 76.9726C23.9742 75.7105 23.0669 74.1518 22.7455 72.6882C22.4786 71.472 22.6203 70.3697 23.1239 69.5145ZM14.6897 45.1945C14.7867 44.642 15.3132 44.2727 15.8658 44.3696C16.4183 44.4666 16.7876 44.9931 16.6907 45.5456C16.1593 48.5734 16.069 50.3954 16.2575 53.8381C16.4102 56.6265 16.8457 59.2429 17.5356 61.6844C17.6881 62.2243 17.3742 62.7856 16.8343 62.9381C16.2945 63.0906 15.7332 62.7767 15.5806 62.2368C14.8481 59.6444 14.3895 56.8795 14.229 53.9492C14.0333 50.3738 14.1281 48.3951 14.6897 45.1945ZM11.4557 46.3937C10.899 46.3241 10.3914 46.719 10.3218 47.2756C10.0309 49.6032 10.0132 51.5811 10.1757 54.5456C10.281 56.4674 10.503 58.3243 10.8359 60.1148C10.9385 60.6664 11.4687 61.0303 12.0203 60.9278C12.5718 60.8252 12.9358 60.295 12.8332 59.7434C12.5167 58.0417 12.3048 56.2718 12.2042 54.4345C12.0456 51.5403 12.067 49.693 12.3376 47.5275C12.4072 46.9709 12.0123 46.4632 11.4557 46.3937ZM107.375 46.7244C106.814 46.7244 106.36 47.1792 106.36 47.7402V48.9816H104.538C103.977 48.9816 103.522 49.4364 103.522 49.9974C103.522 50.5584 103.977 51.0131 104.538 51.0131H106.36V52.4803C106.36 53.0413 106.814 53.4961 107.375 53.4961C107.936 53.4961 108.391 53.0413 108.391 52.4803V51.0131H109.955C110.516 51.0131 110.971 50.5584 110.971 49.9974C110.971 49.4364 110.516 48.9816 109.955 48.9816H108.391V47.7402C108.391 47.1792 107.936 46.7244 107.375 46.7244ZM41.3194 1.69291C41.3194 1.13193 41.7742 0.677166 42.3352 0.677166C42.8961 0.677166 43.3509 1.13193 43.3509 1.69291V2.61192H44.2699C44.8309 2.61192 45.2857 3.06669 45.2857 3.62767C45.2857 4.18865 44.8309 4.64342 44.2699 4.64342H43.3509V5.75591C43.3509 6.31689 42.8961 6.77165 42.3352 6.77165C41.7742 6.77165 41.3194 6.31689 41.3194 5.75591V4.64342H40.2069C39.6459 4.64342 39.1912 4.18865 39.1912 3.62767C39.1912 3.06669 39.6459 2.61192 40.2069 2.61192L41.3194 2.61192V1.69291ZM101.926 62.2992C101.365 62.2992 100.91 62.754 100.91 63.315V64.234H99.7975C99.2365 64.234 98.7817 64.6887 98.7817 65.2497C98.7817 65.8107 99.2365 66.2655 99.7975 66.2655H100.91V67.378C100.91 67.9389 101.365 68.3937 101.926 68.3937C102.487 68.3937 102.941 67.9389 102.941 67.378V66.2655H103.86C104.421 66.2655 104.876 65.8107 104.876 65.2497C104.876 64.6887 104.421 64.234 103.86 64.234H102.941V63.315C102.941 62.754 102.487 62.2992 101.926 62.2992ZM76.6445 73.8492L76.6151 73.8078L76.615 73.8077C75.4067 72.1077 74.0988 70.2675 72.7137 69.1112C72.0238 68.5353 71.3933 68.1985 70.8245 68.095C70.2982 67.9993 69.7447 68.087 69.118 68.5324C67.7768 69.4857 67.2898 70.8221 67.3919 72.3583C67.497 73.9414 68.2379 75.7104 69.3575 77.2855C69.6825 77.7428 69.5753 78.3769 69.118 78.7019C68.6608 79.0269 68.0266 78.9197 67.7016 78.4625C66.4379 76.6845 65.5022 74.5604 65.3648 72.4929C65.2244 70.3785 65.9291 68.3067 67.9411 66.8766C68.9909 66.1304 70.0957 65.8976 71.1881 66.0963C72.2381 66.2873 73.1868 66.8598 74.0156 67.5517C75.606 68.8794 77.0422 70.9012 78.1915 72.5191L78.1915 72.5191L78.3004 72.6723C78.6254 73.1296 78.5182 73.7637 78.0609 74.0887C77.6037 74.4137 76.9695 74.3065 76.6445 73.8492ZM50.8595 70.2171C49.072 71.7841 47.3933 74.0618 46.2978 75.7614C45.9939 76.2329 45.3653 76.3688 44.8938 76.0649C44.4223 75.761 44.2864 75.1324 44.5903 74.6609C45.7235 72.9026 47.5227 70.4406 49.5203 68.6895C50.5166 67.8161 51.6246 67.0637 52.7787 66.6984C53.9671 66.3223 55.2375 66.3522 56.4079 67.1066C58.5601 68.4937 59.1732 70.8111 59.003 73.0636C58.8337 75.3033 57.8942 77.6507 56.7114 79.4858C56.4075 79.9574 55.7789 80.0932 55.3074 79.7893C54.8359 79.4854 54.7 78.8568 55.0039 78.3853C56.0498 76.7626 56.8392 74.7367 56.9773 72.9105C57.1143 71.097 56.6131 69.6557 55.3074 68.8142C54.7489 68.4542 54.1317 68.401 53.3916 68.6352C52.6172 68.8803 51.7558 69.4314 50.8595 70.2171ZM40.6503 50.1709L40.6715 50.2171C41.5417 52.1127 42.4836 54.1645 42.7944 55.9418C42.9492 56.827 42.9264 57.5415 42.7322 58.086C42.5525 58.5899 42.2003 59.0257 41.5015 59.3465C40.196 59.9459 38.671 59.4486 37.0544 58.0153C35.4721 56.6125 34.0898 54.5391 33.2758 52.766C33.0418 52.2562 32.4388 52.0326 31.9289 52.2667C31.4191 52.5007 31.1955 53.1038 31.4296 53.6136C32.3319 55.5792 33.8665 57.9039 35.7067 59.5354C37.5127 61.1365 39.9158 62.3098 42.349 61.1928C43.5196 60.6554 44.2727 59.8142 44.6457 58.7684C45.0042 57.7632 44.9815 56.6554 44.7955 55.5918C44.4387 53.5511 43.4034 51.2975 42.575 49.4942L42.575 49.4942L42.4965 49.3234C42.2625 48.8135 41.6594 48.59 41.1496 48.824C40.6398 49.0581 40.4162 49.6611 40.6503 50.1709ZM66.5781 41.9909C66.0208 42.055 65.6209 42.5588 65.6851 43.1161C65.6961 43.212 65.7029 43.3067 65.7056 43.4003C65.7027 43.4876 65.7017 43.5743 65.7027 43.6602C65.6304 45.0534 64.6518 46.117 63.4805 46.2518C62.6805 46.3438 62.0049 46.2139 61.4473 45.8756C60.8882 45.5364 60.3516 44.9294 59.9361 43.8966C59.7267 43.3761 59.135 43.124 58.6146 43.3334C58.0942 43.5427 57.842 44.1344 58.0514 44.6548C58.5921 45.9989 59.3791 46.997 60.3935 47.6124C61.4093 48.2287 62.557 48.4029 63.7127 48.2699C64.9632 48.1261 66.0058 47.4731 66.7163 46.5434C67.322 47.2354 68.1516 47.6595 69.0822 47.7666C70.2708 47.9034 71.2906 47.3461 71.9657 46.7117C72.3106 46.3876 72.5984 46.015 72.8059 45.6354C73.0056 45.2699 73.1683 44.8289 73.1746 44.3768C73.1824 43.8159 72.7341 43.3548 72.1731 43.347C71.6122 43.3391 71.1511 43.7875 71.1433 44.3484L71.1433 44.3478C71.1432 44.3478 71.1417 44.3754 71.1238 44.4324C71.1051 44.4924 71.073 44.5701 71.0233 44.6611C70.9229 44.8448 70.7694 45.0481 70.5745 45.2313C70.1699 45.6115 69.7157 45.7946 69.3144 45.7484C68.8008 45.6893 68.3945 45.4431 68.1229 45.0481C67.9058 44.7323 67.7447 44.2747 67.7341 43.6628C67.7369 43.5859 67.7379 43.5087 67.7372 43.4313C67.7415 43.33 67.7497 43.225 67.7623 43.1161C67.8264 42.5588 67.4266 42.055 66.8693 41.9909C66.8202 41.9853 66.7716 41.9832 66.7237 41.9845C66.6757 41.9832 66.6271 41.9853 66.5781 41.9909ZM4.54237 4.60987C5.69918 4.2999 6.87725 4.62718 7.70395 5.3813L7.71013 5.38695L25.7225 21.5479C26.5252 22.434 27.1355 23.5192 27.467 24.7567C28.5802 28.911 26.1148 33.1811 21.9605 34.2943C18.8429 35.1297 16.2014 33.7109 14.8234 31.5516C13.4363 29.3781 13.4068 26.609 15.3495 24.663C15.7958 24.216 16.3619 23.8765 17.0188 23.7005C19.0056 23.1682 21.0478 24.3472 21.5802 26.3341C22.1126 28.3209 20.9335 30.3632 18.9466 30.8955C18.2898 31.0715 17.6298 31.0606 17.0198 30.8966C16.4781 30.751 15.9208 31.0721 15.7752 31.6138C15.6295 32.1556 15.9506 32.7128 16.4924 32.8585C17.4381 33.1127 18.4614 33.1287 19.4724 32.8578C22.543 32.035 24.3652 28.8789 23.5425 25.8083C22.7197 22.7377 19.5635 20.9155 16.493 21.7383C15.4819 22.0092 14.6037 22.5347 13.9118 23.2277C11.1565 25.9876 11.3259 29.8474 13.1109 32.6445C14.905 35.4558 18.4089 37.3491 22.4863 36.2566C27.7243 34.853 30.8328 29.469 29.4293 24.2309C29.0067 22.6537 28.2217 21.2671 27.1873 20.1393L27.1539 20.1029L9.07305 3.88045L9.06982 3.87752C7.75323 2.67844 5.86867 2.15133 4.01658 2.64759C1.12663 3.42195 -0.588409 6.39247 0.185959 9.28243C0.461449 10.3106 1.01662 11.1925 1.74767 11.8649L4.51152 14.6091C2.71839 15.6621 1.77175 17.8171 2.33607 19.9232C2.65942 21.1299 3.42319 22.4808 4.50414 23.4308L4.51644 23.4416L4.97466 23.8188C3.86389 24.7859 3.36054 26.3629 3.76762 27.8821C4.03362 28.8748 4.64895 29.9901 5.52041 30.7842L5.53233 30.795L9.04182 33.7943C9.46828 34.1588 10.1094 34.1086 10.4739 33.6821C10.8384 33.2556 10.7881 32.6145 10.3617 32.25L6.87759 29.2724C6.32751 28.7663 5.90469 28.0086 5.7299 27.3563C5.48418 26.4393 5.88825 25.5564 6.59383 25.1518L9.02638 27.1543C9.4595 27.5109 10.0996 27.4488 10.4562 27.0157C10.8127 26.5826 10.7506 25.9425 10.3175 25.5859L5.8336 21.8946C5.08636 21.2329 4.52628 20.248 4.29835 19.3974C3.92654 18.0097 4.7026 16.5849 6.04446 16.1312L11.7416 21.7878C12.1397 22.183 12.7828 22.1807 13.1781 21.7826C13.5734 21.3846 13.5711 20.7414 13.173 20.3462L3.1493 10.3938L3.13343 10.3793C2.67241 9.9588 2.32236 9.40649 2.14823 8.75664C1.66425 6.95042 2.73615 5.09384 4.54237 4.60987ZM50.8368 18.8907C50.3528 18.044 49.6668 17.0994 48.9451 16.5009C48.1973 15.8808 47.7287 15.8606 47.3953 16.0513C46.9985 16.2781 46.7121 16.8399 46.758 17.875C46.8021 18.8677 47.1554 19.9743 47.5952 20.7437C47.8736 21.2308 47.7045 21.8513 47.2175 22.1297C46.7305 22.4081 46.11 22.239 45.8316 21.7519C45.2442 20.7245 44.788 19.3056 44.7285 17.965C44.6709 16.6669 44.987 15.0879 46.3871 14.2876C47.8504 13.4511 49.282 14.1411 50.2419 14.9372C51.2279 15.7549 52.0573 16.9324 52.6005 17.8825C52.8789 18.3695 52.7097 18.9901 52.2227 19.2685C51.7357 19.5469 51.1152 19.3777 50.8368 18.8907ZM62.8325 31.7204V29.1181H36.1092C35.6316 29.1181 35.1282 29.5541 35.1282 30.2403V30.5692C35.1282 31.0737 35.4941 31.3624 35.802 31.3624H35.9556C37.4291 31.3624 38.5074 32.6199 38.5074 34.0227C38.5074 34.4364 38.8045 34.6515 39.0277 34.6515C40.5012 34.6515 41.5794 35.909 41.5794 37.3118V37.6407C41.5794 38.2361 42.0141 38.5984 42.4069 38.5984H56.0146C56.1529 38.5984 56.3813 38.457 56.3813 38.1341C56.3813 36.8221 57.3907 35.6382 58.7794 35.6382H59.2402C59.4633 35.6382 59.7605 35.4232 59.7605 35.0094C59.7605 33.6066 60.8387 32.3492 62.3122 32.3492C62.5354 32.3492 62.8325 32.1341 62.8325 31.7204Z" fill="white" fill-opacity="0.8"/>
</svg>
