<svg width="99" height="91" viewBox="0 0 99 91" fill="none" xmlns="http://www.w3.org/2000/svg">
<path fill-rule="evenodd" clip-rule="evenodd" d="M67.3447 0C67.8951 0 68.3413 0.4484 68.3413 1.00153V1.90767L69.4329 1.90767C69.9833 1.90767 70.4295 2.35607 70.4295 2.9092C70.4295 3.46233 69.9833 3.91073 69.4329 3.91073H68.3413V5.00764C68.3413 5.56077 67.8951 6.00917 67.3447 6.00917C66.7943 6.00917 66.348 5.56077 66.348 5.00764V3.91073H65.4463C64.8959 3.91073 64.4497 3.46233 64.4497 2.9092C64.4497 2.35607 64.8959 1.90767 65.4463 1.90767H66.348V1.00153C66.348 0.4484 66.7943 0 67.3447 0ZM26.4848 25.2725C32.652 16.8305 42.5991 11.3507 53.8187 11.3507C61.4708 11.3507 68.926 14.975 75.0707 20.6474C75.476 21.0215 76.1065 20.9947 76.4789 20.5873C76.8512 20.18 76.8245 19.5464 76.4191 19.1722C70.0176 13.2628 62.1028 9.3476 53.8187 9.3476C42.3809 9.3476 32.194 14.7255 25.6243 23.1019L19.2265 13.3822C18.4338 12.1585 17.0501 11.3507 15.4813 11.3507C13.0364 11.3507 11.0296 13.3174 11.0296 15.7741C11.0296 16.6446 11.2837 17.4584 11.7213 18.1431L13.1183 20.52C11.5981 21.0514 10.498 22.4891 10.498 24.1972C10.498 25.2094 10.814 26.4213 11.4665 27.3905L11.4755 27.404L11.602 27.5794C10.619 28.1549 9.9665 29.2399 9.96649 30.4619C9.96649 31.3 10.2168 32.3039 10.741 33.1137L10.7497 33.1271L12.8032 36.0884C13.1179 36.5422 13.7391 36.6537 14.1907 36.3374C14.6423 36.0212 14.7532 35.3969 14.4385 34.9431L12.4041 32.0094C12.1155 31.557 11.9598 30.9469 11.9598 30.4619C11.9598 29.877 12.3151 29.4044 12.7888 29.2249L14.1427 31.1022C14.4657 31.5501 15.0889 31.6501 15.5346 31.3255C15.9803 31.0009 16.0797 30.3747 15.7567 29.9268L13.1092 26.2558C12.7039 25.6471 12.4913 24.8399 12.4913 24.1972C12.4913 23.2438 13.2154 22.436 14.1752 22.3181L17.2808 27.602C17.5608 28.0782 18.1719 28.2363 18.6458 27.955C19.1198 27.6737 19.277 27.0596 18.9971 26.5833L13.4167 17.0889L13.4052 17.071C13.1627 16.696 13.0229 16.2522 13.0229 15.7741C13.0229 14.451 14.1098 13.3537 15.4813 13.3537C16.3572 13.3537 17.1218 13.8033 17.5574 14.4771L17.5619 14.4841L24.3612 24.8137C21.8127 28.489 19.9278 32.6637 18.8811 37.1624C18.7558 37.701 19.0887 38.2397 19.6247 38.3656C20.1606 38.4916 20.6967 38.157 20.822 37.6184C21.8461 33.2171 23.7199 29.1442 26.26 25.5839C26.3562 25.494 26.4316 25.3878 26.4848 25.2725ZM89.8915 40.4308C89.7277 39.9027 89.1689 39.6081 88.6434 39.7727C88.1179 39.9373 87.8247 40.4988 87.9885 41.0269C89.097 44.6005 89.6979 48.2266 89.6979 51.7456C89.6979 70.4996 75.577 83.4607 56.8087 83.4607C45.3635 83.4607 36.9475 79.834 31.0755 74.2549C25.1899 68.6629 21.7847 61.0368 20.5115 52.925C20.4257 52.3786 19.9154 52.0055 19.3717 52.0917C18.828 52.1779 18.4568 52.6907 18.5425 53.2371C19.869 61.688 23.4354 69.7525 29.7061 75.7104C35.6796 81.386 44.0391 85.0843 55.0659 85.4362C54.9923 85.6162 54.9701 85.8196 55.0134 86.0244C55.4176 87.9337 56.8016 89.3647 58.5644 90.1803C60.327 90.9957 62.5263 91.2325 64.7556 90.7559C66.9849 90.2793 68.8979 89.1634 70.1775 87.6975C71.4376 86.254 72.1206 84.4157 71.7553 82.5368C83.7051 77.4837 91.6912 66.2551 91.6912 51.7456C91.6912 47.9999 91.0521 44.1725 89.8915 40.4308ZM56.9631 85.6076C56.9525 85.5579 56.9385 85.5098 56.9213 85.4636C61.5284 85.4514 65.8817 84.6912 69.8481 83.2787C69.9323 84.3104 69.5336 85.3977 68.6791 86.3766C67.7095 87.4873 66.1914 88.4011 64.3409 88.7967C62.4903 89.1923 60.7335 88.9787 59.398 88.3608C58.0626 87.743 57.2066 86.7577 56.9631 85.6076ZM4.52445 46.4042C4.52445 45.851 4.07824 45.4026 3.5278 45.4026C2.97737 45.4026 2.53116 45.851 2.53116 46.4042V47.6282H0.996644C0.446213 47.6282 0 48.0766 0 48.6298C0 49.1829 0.446213 49.6313 0.996644 49.6313H2.53116V51.078C2.53116 51.6311 2.97737 52.0795 3.5278 52.0795C4.07824 52.0795 4.52445 51.6311 4.52445 51.078V49.6313H6.31208C6.86251 49.6313 7.30872 49.1829 7.30872 48.6298C7.30872 48.0766 6.86251 47.6282 6.31208 47.6282H4.52445V46.4042ZM9.87152 61.7609C9.87152 61.2078 9.42531 60.7594 8.87488 60.7594C8.32445 60.7594 7.87824 61.2078 7.87824 61.7609V62.6671H6.97651C6.42608 62.6671 5.97987 63.1155 5.97987 63.6686C5.97987 64.2217 6.42608 64.6701 6.97651 64.6701H7.87824V65.767C7.87824 66.3202 8.32445 66.7686 8.87488 66.7686C9.42531 66.7686 9.87152 66.3202 9.87152 65.767V64.6701H10.9631C11.5135 64.6701 11.9597 64.2217 11.9597 63.6686C11.9597 63.1155 11.5135 62.6671 10.9631 62.6671H9.87152V61.7609ZM66.5186 48.0784L66.4833 48.1139C66.0941 48.505 65.4631 48.505 65.0738 48.1139C64.6846 47.7227 64.6846 47.0886 65.0738 46.6975L65.2042 46.5664L65.2043 46.5664C66.5807 45.1824 68.3009 43.4529 70.0567 42.4235C70.9717 41.887 71.9832 41.4863 73.0303 41.4732C74.1196 41.4596 75.1504 41.8675 76.044 42.7655C77.9016 44.6322 77.6419 47.2561 76.7848 49.4744C75.9115 51.735 74.2962 53.9505 72.7956 55.4585C72.4064 55.8496 71.7753 55.8496 71.3861 55.4585C70.9969 55.0673 70.9969 54.4332 71.3861 54.0421C72.7397 52.6818 74.1758 50.6932 74.9267 48.7495C75.6938 46.7637 75.6312 45.1834 74.6345 44.1819C74.1011 43.6458 73.5799 43.4696 73.0551 43.4761C72.4879 43.4832 71.8228 43.707 71.0612 44.1536C69.532 45.0501 67.9657 46.6242 66.5186 48.0784ZM28.2169 45.4833L28.174 45.4576C26.4152 44.4061 24.5115 43.2678 22.8098 42.7771C21.9623 42.5327 21.2628 42.4802 20.7114 42.6136C20.201 42.7371 19.7391 43.0368 19.3533 43.6883C18.6326 44.9056 18.959 46.4528 20.189 48.1877C21.3928 49.8859 23.2718 51.4582 24.9169 52.4418C25.3899 52.7246 25.5452 53.3392 25.2638 53.8146C24.9824 54.2899 24.3707 54.446 23.8977 54.1632C22.0739 53.0727 19.9656 51.3249 18.5655 49.3499C17.1915 47.4118 16.2971 44.9329 17.6403 42.6642C18.2865 41.5727 19.1856 40.9225 20.2448 40.6662C21.2629 40.4199 22.3414 40.5581 23.3597 40.8517C25.3136 41.4152 27.4045 42.6661 29.0776 43.667L29.2361 43.7618C29.7091 44.0447 29.8644 44.6593 29.583 45.1346C29.3015 45.61 28.6899 45.7661 28.2169 45.4833ZM33.4632 71.2065L33.4279 71.2419C33.0387 71.6331 32.4077 71.6331 32.0185 71.2419C31.6293 70.8508 31.6293 70.2167 32.0185 69.8256L32.1489 69.6945L32.1489 69.6944C33.5253 68.3105 35.2455 66.5809 37.0013 65.5515C37.9163 65.0151 38.9278 64.6144 39.9749 64.6013C41.0643 64.5877 42.095 64.9956 42.9886 65.8936C44.8462 67.7603 44.5865 70.3841 43.7295 72.6025C42.8562 74.863 41.2409 77.0785 39.7402 78.5865C39.351 78.9777 38.72 78.9777 38.3308 78.5865C37.9415 78.1954 37.9415 77.5613 38.3308 77.1702C39.6844 75.8099 41.1204 73.8213 41.8713 71.8776C42.6385 69.8918 42.5758 68.3115 41.5792 67.3099C41.0457 66.7738 40.5246 66.5976 39.9997 66.6042C39.4325 66.6113 38.7674 66.8351 38.0058 67.2816C36.4767 68.1782 34.9103 69.7523 33.4632 71.2065ZM63.6758 70.4655L63.6361 70.435C62.0105 69.1857 60.2509 67.8334 58.6173 67.1478C57.8037 66.8063 57.1149 66.6728 56.5518 66.7411C56.0307 66.8042 55.5373 67.0481 55.079 67.6503C54.2228 68.7754 54.3685 70.3502 55.3901 72.2167C56.3899 74.0436 58.0749 75.8242 59.5955 76.9927C60.0327 77.3287 60.1161 77.9573 59.7817 78.3967C59.4474 78.8361 58.8218 78.9199 58.3846 78.5838C56.6989 77.2884 54.8064 75.3067 53.6435 73.182C52.5023 71.0969 51.8998 68.5305 53.4956 66.4335C54.2633 65.4247 55.2314 64.8836 56.313 64.7524C57.3526 64.6264 58.408 64.8892 59.3855 65.2995C61.2612 66.0867 63.1938 67.5727 64.7402 68.7617L64.8866 68.8744C65.3239 69.2104 65.4073 69.8389 65.0729 70.2783C64.7385 70.7177 64.113 70.8015 63.6758 70.4655ZM47.1745 37.3904C47.1745 36.8373 46.7283 36.3889 46.1779 36.3889C45.6274 36.3889 45.1812 36.8373 45.1812 37.3904C45.1812 37.471 45.1826 37.5513 45.1855 37.6312C45.1826 37.6619 45.1812 37.6929 45.1812 37.7242C45.1812 39.748 43.5398 41.3965 41.5052 41.3965C40.1886 41.3965 39.0344 40.706 38.3842 39.6659C38.0914 39.1975 37.4762 39.0563 37.0101 39.3505C36.544 39.6447 36.4035 40.263 36.6963 40.7313C37.6505 42.2577 39.3121 43.2983 41.2215 43.3926C41.3296 44.711 41.766 45.9447 42.5464 46.9059C43.4732 48.0476 44.8375 48.7411 46.5101 48.7411C48.1424 48.7411 49.7779 48.0827 51.009 47.038C51.9414 46.2467 52.691 45.1885 53.0007 43.9631C54.8817 43.6256 56.488 42.4926 57.4627 40.9259C57.7545 40.4569 57.6128 39.839 57.146 39.5458C56.6793 39.2525 56.0644 39.395 55.7726 39.864C55.1139 40.9228 54.0475 41.6956 52.7957 41.9624C52.6229 41.8175 52.4004 41.7304 52.1577 41.7304C51.8706 41.7304 51.6119 41.8523 51.43 42.0475C49.0465 41.8459 47.1745 39.8378 47.1745 37.3904ZM50.8837 44.0007C48.9032 43.7183 47.2037 42.5583 46.1876 40.9251C45.4763 41.9656 44.4281 42.7564 43.2014 43.141C43.2697 44.1642 43.594 45.0277 44.0909 45.6397C44.6354 46.3105 45.4305 46.738 46.5101 46.738C47.6298 46.738 48.8182 46.2754 49.7229 45.5076C50.2421 45.0671 50.6395 44.5521 50.8837 44.0007ZM57.4732 35.7212C58.574 35.7212 59.4664 34.8244 59.4664 33.7181C59.4664 32.6119 58.574 31.7151 57.4732 31.7151C56.3723 31.7151 55.4799 32.6119 55.4799 33.7181C55.4799 34.8244 56.3723 35.7212 57.4732 35.7212ZM38.8691 33.7181C38.8691 34.8244 37.9767 35.7212 36.8758 35.7212C35.775 35.7212 34.8825 34.8244 34.8825 33.7181C34.8825 32.6119 35.775 31.7151 36.8758 31.7151C37.9767 31.7151 38.8691 32.6119 38.8691 33.7181ZM92.3557 6.00917C91.1806 6.00917 90.1472 6.62151 89.5552 7.55071L89.5508 7.55767L76.5835 27.5461C76.0478 28.5949 75.745 29.7842 75.745 31.0474C75.745 35.288 79.1659 38.7258 83.3859 38.7258C86.5528 38.7258 88.696 36.7004 89.4537 34.2923C90.2163 31.8683 89.5411 29.2234 87.2057 27.8658C86.6692 27.5539 86.0465 27.3751 85.3792 27.3751C83.3609 27.3751 81.7248 29.0192 81.7248 31.0474C81.7248 33.0755 83.3609 34.7197 85.3792 34.7197C86.0465 34.7197 86.6692 34.5409 87.2057 34.229C87.6821 33.952 88.2918 34.1156 88.5674 34.5944C88.843 35.0732 88.6802 35.6859 88.2038 35.9628C87.372 36.4463 86.4062 36.7227 85.3792 36.7227C82.2601 36.7227 79.7315 34.1818 79.7315 31.0474C79.7315 27.913 82.2601 25.3721 85.3792 25.3721C86.4062 25.3721 87.372 25.6484 88.2038 26.1319C91.516 28.0573 92.3357 31.7767 91.3542 34.8961C90.3678 38.0315 87.5277 40.7288 83.3859 40.7288C78.0651 40.7288 73.7517 36.3943 73.7517 31.0474C73.7517 29.4374 74.1435 27.9164 74.8375 26.5784L74.8599 26.5352L87.8765 6.47069L87.8788 6.46707C88.8221 4.98907 90.4743 4.00611 92.3557 4.00611C95.2913 4.00611 97.6711 6.39758 97.6711 9.3476C97.6711 10.3971 97.3689 11.3787 96.8468 12.2057L94.9243 15.5246C96.8911 16.0699 98.3356 17.8807 98.3356 20.0306C98.3356 21.2623 97.9548 22.7439 97.1715 23.9245L97.1626 23.938L96.8241 24.4142C98.1225 25.0518 99 26.4252 99 27.976C99 28.9894 98.7001 30.2086 98.0758 31.1873L98.0672 31.2007L95.5027 34.9528C95.1911 35.4088 94.5707 35.5245 94.117 35.2114C93.6632 34.8982 93.548 34.2747 93.8597 33.8188L96.4056 30.0938C96.7984 29.4714 97.0067 28.6419 97.0067 27.976C97.0067 27.04 96.3995 26.3022 95.6281 26.0969L93.8311 28.6249C93.5112 29.075 92.8888 29.1793 92.4408 28.8578C91.9929 28.5363 91.8892 27.9108 92.2091 27.4607L95.5214 22.8008C96.0616 21.9798 96.3423 20.8989 96.3423 20.0306C96.3423 18.6141 95.2449 17.4552 93.8579 17.3654L89.8949 24.2067C89.618 24.6847 89.0079 24.8467 88.5322 24.5684C88.0565 24.2901 87.8953 23.677 88.1722 23.199L95.1448 11.1623L95.1562 11.1445C95.4864 10.6263 95.6779 10.011 95.6779 9.3476C95.6779 7.50384 94.1905 6.00917 92.3557 6.00917ZM60.1944 18.9407C59.4863 19.5308 58.8133 20.4622 58.3384 21.297C58.0652 21.7772 57.4564 21.9439 56.9785 21.6694C56.5006 21.3949 56.3347 20.7831 56.6079 20.3029C57.1408 19.3661 57.9545 18.205 58.922 17.3988C59.8639 16.6139 61.2685 15.9335 62.7044 16.7583C64.0781 17.5475 64.3882 19.1043 64.3317 20.3843C64.2734 21.706 63.8257 23.1051 63.2495 24.1182C62.9763 24.5984 62.3675 24.7651 61.8896 24.4906C61.4117 24.2161 61.2458 23.6043 61.519 23.1241C61.9505 22.3654 62.2972 21.2743 62.3404 20.2955C62.3854 19.2749 62.1044 18.7209 61.7151 18.4973C61.388 18.3093 60.9282 18.3292 60.1944 18.9407ZM41.2463 20.3149C40.9805 19.5181 40.5544 18.6182 40.0337 18.0133C39.5134 17.4088 39.1058 17.3024 38.7281 17.4297C38.2871 17.5782 37.9245 18.0331 37.7603 18.8957C37.5995 19.7413 37.6931 20.7273 37.9284 21.4326C38.1034 21.9571 37.8221 22.5247 37.3002 22.7005C36.7783 22.8764 36.2134 22.5937 36.0385 22.0693C35.7008 21.0571 35.5736 19.7225 35.8025 18.5195C36.0282 17.3335 36.666 16.0117 38.0945 15.5305C39.5863 15.0279 40.7822 15.821 41.5413 16.7029C42.2999 17.5843 42.8291 18.7575 43.1362 19.6782C43.3112 20.2027 43.0299 20.7704 42.508 20.9462C41.9861 21.122 41.4212 20.8394 41.2463 20.3149Z" fill="white" fill-opacity="0.8"/>
</svg>
