<svg width="39" height="39" viewBox="0 0 39 39" fill="none" xmlns="http://www.w3.org/2000/svg">
<path fill-rule="evenodd" clip-rule="evenodd" d="M17.5881 0.852941H21.8528C25.8977 0.852941 28.8456 0.854753 31.0983 1.15761C33.3264 1.45717 34.7461 2.03712 35.8103 3.10133C36.8745 4.16554 37.4545 5.5853 37.754 7.81339C38.0569 10.066 38.0587 13.0139 38.0587 17.0588V21.3235C38.0587 25.3684 38.0569 28.3163 37.754 30.569C37.4545 32.7971 36.8745 34.2168 35.8103 35.281C34.7461 36.3452 33.3264 36.9252 31.0983 37.2247C28.8456 37.5276 25.8977 37.5294 21.8528 37.5294H17.5881C13.5432 37.5294 10.5953 37.5276 8.34269 37.2247C6.11459 36.9252 4.69484 36.3452 3.63062 35.281C2.56641 34.2168 1.98647 32.7971 1.68691 30.569C1.38405 28.3163 1.38224 25.3684 1.38224 21.3235V17.0588C1.38224 13.0139 1.38405 10.066 1.68691 7.81339C1.98647 5.5853 2.56641 4.16554 3.63062 3.10133C4.69484 2.03712 6.11459 1.45717 8.34269 1.15761C10.5953 0.854753 13.5432 0.852941 17.5881 0.852941ZM0.529297 17.0588C0.529297 9.01722 0.529297 4.99641 3.0275 2.49821C5.52571 0 9.54651 0 17.5881 0H21.8528C29.8944 0 33.9152 0 36.4134 2.49821C38.9117 4.99641 38.9117 9.01722 38.9117 17.0588V21.3235C38.9117 29.3651 38.9117 33.3859 36.4134 35.8841C33.9152 38.3824 29.8944 38.3824 21.8528 38.3824H17.5881C9.54651 38.3824 5.52571 38.3824 3.0275 35.8841C0.529297 33.3859 0.529297 29.3651 0.529297 21.3235V17.0588ZM21.4392 7.7889C20.5057 9.16585 20.414 10.8762 21.0616 12.3972C21.745 14.0114 23.1449 15.278 24.7786 15.8784C24.8345 15.8994 24.8905 15.9183 24.9468 15.9374L24.9815 15.9492C24.9945 15.9532 25.0076 15.9574 25.0207 15.9617L25.0209 15.9617C25.0375 15.9671 25.0542 15.9725 25.0711 15.9774C25.0928 15.9842 25.1145 15.9913 25.1363 15.9985L25.1364 15.9985C25.2107 16.0228 25.2852 16.0472 25.3622 16.0617C29.4217 16.8477 30.8213 14.3434 31.2995 13.4879C31.3532 13.3918 31.3952 13.3165 31.4281 13.269C30.3553 14.8172 28.5524 15.1887 26.3404 14.6507C26.1594 14.6043 25.9808 14.549 25.8052 14.4851C25.5888 14.4081 25.3767 14.3198 25.1696 14.2205C24.7765 14.0309 24.4033 13.8026 24.0553 13.539C22.0758 12.0338 20.8462 9.16216 22.1378 6.82353L21.4392 7.7889ZM15.4594 17.5324C14.224 15.1166 14.1381 12.0588 15.7216 9.77466L17.0159 7.94426C15.9626 9.72753 15.8315 11.925 16.4395 13.8826C17.0196 15.7702 18.2398 17.4347 19.7792 18.6528C19.8002 18.6697 19.8215 18.6863 19.8428 18.7031L19.8788 18.7313C20.0236 18.8427 20.1709 18.9507 20.3207 19.0552C20.3911 19.1028 20.4619 19.1498 20.5332 19.1961L20.55 19.2072L20.5768 19.2253C20.5951 19.2378 20.6134 19.2502 20.632 19.2622C20.74 19.3312 20.8491 19.3978 20.9597 19.4628C20.9727 19.4705 20.986 19.4779 20.9992 19.4852L21.0246 19.4994C21.114 19.5519 21.2042 19.6029 21.2952 19.6524L21.4187 19.7161L21.4589 19.737C21.5163 19.7669 21.574 19.7968 21.6326 19.8254C21.7731 19.895 21.9153 19.9612 22.059 20.024C22.0778 20.0325 22.0971 20.0405 22.1164 20.0485C22.1285 20.0535 22.1407 20.0585 22.1528 20.0637C22.2682 20.1128 22.3844 20.1597 22.5014 20.2046C22.6567 20.2644 22.8135 20.32 22.9718 20.3713C23.1706 20.4374 23.3714 20.4972 23.574 20.5506C27.0905 21.4654 30.3861 20.2936 32.0881 17.837C32.0881 17.837 30.2001 24.1472 22.0227 22.7895C21.906 22.7699 21.7936 22.7324 21.6819 22.695C21.6417 22.6816 21.6016 22.6682 21.5614 22.6557C21.5303 22.6461 21.4998 22.6362 21.4692 22.6263L21.4168 22.6093C21.3099 22.5733 21.2035 22.5372 21.0976 22.498L21.0785 22.491C21.0355 22.4753 20.9919 22.4595 20.9489 22.4432C20.8322 22.3984 20.7164 22.3508 20.6013 22.3018L20.5897 22.2971L20.5736 22.2906C20.5515 22.2818 20.5294 22.273 20.5078 22.2633C20.364 22.2007 20.2235 22.1343 20.084 22.0653L20.0777 22.0625C20.0696 22.059 20.0613 22.0553 20.0532 22.0511C19.9885 22.0189 19.9245 21.9851 19.8607 21.9514L19.8501 21.9458L19.8251 21.933L19.825 21.933C19.7987 21.9196 19.7726 21.9064 19.7466 21.8918C19.6491 21.8391 19.5519 21.7846 19.456 21.7293L19.4361 21.7177L19.4359 21.7177L19.4358 21.7176C19.4297 21.7141 19.4234 21.7105 19.4171 21.7067C19.4146 21.7053 19.4121 21.7037 19.4095 21.7022C19.2981 21.6374 19.1888 21.5697 19.0808 21.5002C19.0604 21.488 19.0409 21.4746 19.0213 21.4612L19.0212 21.4612C19.0092 21.453 18.9972 21.4447 18.9849 21.4367L18.9258 21.3983L18.9257 21.3982C18.8777 21.367 18.8297 21.3358 18.7823 21.303L18.7784 21.2999C18.7755 21.2976 18.7728 21.2954 18.7695 21.2932C18.6181 21.1889 18.4705 21.0797 18.3259 20.9685C18.312 20.9578 18.2983 20.9469 18.2847 20.9361C18.2664 20.9216 18.2482 20.9073 18.2298 20.8932C18.0853 20.7789 17.9431 20.6626 17.8057 20.5417C17.8052 20.5406 17.8043 20.54 17.8034 20.5393L17.802 20.5383C17.7997 20.5364 17.7975 20.5344 17.7953 20.5323C17.7927 20.5299 17.7901 20.5275 17.7873 20.5254C17.6628 20.4156 17.5424 20.3023 17.4242 20.1872L17.3907 20.1543L17.3906 20.1542L17.3905 20.1541C17.3704 20.1344 17.3504 20.1148 17.3307 20.0946C17.2088 19.9737 17.0895 19.851 16.9752 19.7248C16.6971 19.4828 16.4595 19.1384 16.2444 18.8266L16.2441 18.8262C16.2157 18.7849 16.1876 18.7442 16.1599 18.7044C15.9003 18.33 15.6663 17.9384 15.4594 17.5324ZM8.6791 23.0433C7.00622 19.6914 6.73376 15.5871 8.92372 12.4325L10.6331 10.2597C8.70511 13.9956 9.57164 18.5449 11.9844 21.8428C12.0716 21.9629 12.1607 22.0811 12.2519 22.1996C12.2798 22.2352 12.3081 22.2705 12.3367 22.3055C12.4126 22.4022 12.4898 22.4979 12.5682 22.5925L12.5964 22.6259L12.5965 22.626C12.6151 22.6481 12.6337 22.6701 12.6526 22.6928C12.7575 22.8172 12.8648 22.9396 12.9744 23.0599L12.9902 23.0765C13.094 23.19 13.1996 23.3022 13.3073 23.4128C13.3281 23.434 13.3493 23.455 13.3705 23.476L13.3705 23.4761L13.4087 23.5142C13.4935 23.6003 13.5797 23.685 13.6673 23.7683C13.699 23.7993 13.7305 23.8294 13.7628 23.8603L13.7629 23.8604L13.7687 23.866C13.8869 23.9771 14.0068 24.0864 14.1284 24.1938L14.1662 24.2254C14.2789 24.3234 14.3929 24.4198 14.5083 24.5145C14.6396 24.6206 14.7721 24.7251 14.9058 24.8282L14.919 24.8383L14.9191 24.8383L14.9192 24.8384C14.9592 24.869 14.9997 24.9 15.0409 24.9306C15.1418 25.0051 15.2429 25.0789 15.3454 25.1513C15.3619 25.1624 15.3782 25.1741 15.3946 25.1858L15.3946 25.1859C15.4127 25.1988 15.4309 25.2118 15.4494 25.2242C15.5557 25.2974 15.6631 25.369 15.7716 25.4388L15.8041 25.4608C15.8339 25.481 15.8637 25.5011 15.8937 25.5205C16.0432 25.6156 16.1942 25.7083 16.3467 25.7985C16.3698 25.812 16.3932 25.8249 16.4164 25.8377L16.4165 25.8377L16.4166 25.8378L16.4171 25.8381C16.4328 25.8467 16.4484 25.8554 16.4639 25.8641C16.5786 25.9313 16.6945 25.9964 16.8115 26.0595C16.8523 26.0822 16.8938 26.1036 16.9353 26.1249C16.947 26.131 16.9588 26.137 16.9706 26.1431C16.9821 26.1491 16.9937 26.1551 17.0051 26.1611L17.0646 26.1919C17.1412 26.2316 17.2178 26.2713 17.2952 26.3091C17.4554 26.3869 17.6165 26.4626 17.7787 26.5361C17.7865 26.5394 17.7942 26.5428 17.802 26.5463C17.8098 26.5498 17.8177 26.5533 17.8256 26.5568C17.8395 26.563 17.8534 26.5693 17.8675 26.5754C18.0145 26.6397 18.1628 26.7014 18.312 26.7605C18.3312 26.7682 18.3504 26.7757 18.3697 26.7832C18.3889 26.7908 18.4082 26.7983 18.4274 26.806C18.5639 26.859 18.7011 26.91 18.8391 26.959L18.9032 26.9822C19.0977 27.0495 19.2937 27.1126 19.4909 27.1713C19.5241 27.1811 19.5573 27.1911 19.5905 27.2011L19.5905 27.2011C19.7179 27.2396 19.8455 27.278 19.976 27.3077C24.3215 28.2981 28.9079 27.4085 31.4917 24.0348C31.4917 24.0348 28.4152 32.3494 17.8238 30.4137C17.6989 30.3905 17.5774 30.3519 17.4562 30.3133C17.4161 30.3006 17.3761 30.2878 17.3359 30.2757C17.3153 30.2697 17.2947 30.2635 17.2743 30.2572L17.2508 30.2501L17.2216 30.2414C17.0627 30.1917 16.905 30.1411 16.7487 30.0863C16.5887 30.0303 16.4296 29.9717 16.2716 29.9104L16.2512 29.9025C16.2215 29.891 16.1918 29.8795 16.1623 29.8672C16.0112 29.8075 15.8614 29.7451 15.713 29.6803C15.5562 29.611 15.4005 29.5391 15.2461 29.4646C15.2256 29.4542 15.205 29.4443 15.1844 29.4345L15.1843 29.4345L15.1701 29.4277L15.1468 29.4164L15.1316 29.409L15.1128 29.4L15.1127 29.3999L15.0905 29.3893C15.0308 29.3595 14.9722 29.3285 14.9136 29.2976L14.9134 29.2975L14.8472 29.2626C14.8265 29.2519 14.8055 29.2413 14.7845 29.2306L14.7845 29.2306L14.7845 29.2306C14.7426 29.2094 14.7005 29.188 14.6594 29.1657C14.5448 29.1031 14.4321 29.0396 14.3197 28.9746L14.2754 28.9496L14.2754 28.9496L14.2753 28.9496C14.2483 28.9344 14.2213 28.9192 14.1946 28.9037C14.0419 28.8137 13.8906 28.7204 13.7419 28.6259C13.7153 28.6091 13.6892 28.5914 13.6631 28.5737C13.6476 28.5632 13.6321 28.5527 13.6166 28.5424L13.589 28.5245L13.5889 28.5244C13.5011 28.4672 13.4134 28.4101 13.3275 28.3507C13.3219 28.3469 13.3165 28.343 13.3111 28.339L13.3111 28.339L13.3109 28.3389C13.3067 28.3357 13.3024 28.3325 13.2978 28.3294C13.2693 28.31 13.2419 28.2902 13.2138 28.2701L13.2137 28.27L13.1893 28.2525C13.0892 28.1825 12.9902 28.1108 12.8916 28.0384L12.75 27.9305C12.6607 27.8622 12.5722 27.793 12.4847 27.7227L12.4418 27.6886C12.412 27.665 12.3822 27.6414 12.3528 27.6174C12.2458 27.5291 12.1392 27.4391 12.0348 27.3482L12.0136 27.3302C12.0004 27.319 11.987 27.3077 11.9739 27.2961C11.8533 27.1903 11.7347 27.0822 11.6181 26.9719C11.5957 26.9513 11.5733 26.9298 11.5507 26.908L11.5507 26.908L11.5136 26.8724C11.2802 26.6485 11.0538 26.4174 10.8349 26.1793C10.8325 26.1759 10.8302 26.1735 10.8275 26.1708L10.8252 26.1685L10.8228 26.1659C10.7137 26.0454 10.6067 25.923 10.5017 25.7988C10.396 25.6727 10.2919 25.5454 10.1893 25.4167C10.164 25.3848 10.1388 25.3526 10.1138 25.3206L10.0971 25.2993C10.0141 25.1918 9.93212 25.0833 9.85251 24.9733C9.84568 24.9639 9.83869 24.9547 9.83171 24.9455L9.83167 24.9455L9.83163 24.9454C9.82332 24.9345 9.81503 24.9236 9.80705 24.9124L9.79944 24.9022C9.70774 24.7739 9.61841 24.6441 9.53118 24.5138C9.51117 24.4842 9.49203 24.454 9.47279 24.4237L9.47277 24.4237L9.47273 24.4236L9.45235 24.3916C9.38903 24.2949 9.32702 24.1985 9.26686 24.1009C9.24388 24.0638 9.22149 24.0266 9.19913 23.9894L9.1991 23.9894L9.17569 23.9505C9.1213 23.8591 9.06796 23.768 9.0162 23.6758L9.00151 23.65L9.00148 23.6499C8.97699 23.6069 8.95261 23.564 8.92897 23.5197L8.92435 23.5117L8.92432 23.5116C8.90946 23.486 8.89413 23.4595 8.8801 23.4328C8.86294 23.4021 8.84699 23.3706 8.83106 23.3391L8.83103 23.339L8.83101 23.339L8.83095 23.3388C8.82132 23.3198 8.81169 23.3007 8.8018 23.2819L8.76658 23.2142C8.73705 23.1576 8.70747 23.1009 8.6791 23.0433Z" fill="#9D9DAA"/>
</svg>
