<svg width="39" height="39" viewBox="0 0 39 39" fill="none" xmlns="http://www.w3.org/2000/svg">
<path fill-rule="evenodd" clip-rule="evenodd" d="M2.58634 2.49821C0.0881348 4.99641 0.0881348 9.01722 0.0881348 17.0588V21.3235C0.0881348 29.3651 0.0881348 33.3859 2.58634 35.8841C5.08455 38.3824 9.10535 38.3824 17.147 38.3824H21.4117C29.4533 38.3824 33.4741 38.3824 35.9723 35.8841C38.4705 33.3859 38.4705 29.3651 38.4705 21.3235V17.0588C38.4705 9.01722 38.4705 4.99641 35.9723 2.49821C33.4741 0 29.4533 0 21.4117 0H17.147C9.10535 0 5.08455 0 2.58634 2.49821ZM15.7156 27.3309L13.7353 28.5129L13.7352 28.5127C14.3085 29.7119 15.4377 30.7056 17.3831 30.7056C19.5372 30.7056 21.0137 29.5748 21.0137 27.0907V18.9019H18.5819V27.0568C18.5819 28.256 18.078 28.5642 17.2789 28.5642C16.4452 28.5642 16.0977 27.9989 15.7156 27.3309ZM24.3147 27.1252L22.3346 28.2559L22.3345 28.256C23.0467 29.6437 24.5058 30.7059 26.764 30.7059C29.0743 30.7059 30.794 29.5239 30.794 27.3651C30.794 25.3608 29.6302 24.47 27.563 23.5962L26.9551 23.3393C25.9129 22.8938 25.4612 22.6024 25.4612 21.8829C25.4612 21.3005 25.9129 20.855 26.6251 20.855C27.32 20.855 27.7714 21.1462 28.1884 21.8829L30.082 20.6836C29.283 19.2959 28.1712 18.7647 26.6252 18.7647C24.4538 18.7647 23.0641 20.1353 23.0641 21.9342C23.0641 23.8873 24.228 24.8125 25.9825 25.5489L26.5903 25.8061C27.7021 26.2857 28.3622 26.577 28.3622 27.3993C28.3622 28.0846 27.7197 28.5815 26.712 28.5815C25.5135 28.5815 24.836 27.9647 24.3147 27.1252Z" fill="#9D9DAA"/>
</svg>
