<svg width="270" height="285" viewBox="0 0 270 285" fill="none" xmlns="http://www.w3.org/2000/svg">
<path opacity="0.2" d="M105.259 174.787C104.501 173.856 103.1 173.8 102.269 174.666L66.1129 212.356C65.7561 212.728 65.5569 213.223 65.5569 213.739V283.003C65.5569 284.106 64.6626 285 63.5595 285H1.99739C0.894263 285 0 284.106 0 283.003V1.99737C0 0.894242 0.894262 0 1.99739 0H63.5595C64.6626 0 65.5569 0.894262 65.5569 1.99739V128.126C65.5569 129.931 67.7617 130.81 69.0037 129.5L191.194 0.623128C191.571 0.225311 192.095 0 192.643 0H260.494C262.239 0 263.145 2.07955 261.957 3.35731L148.161 125.773C147.49 126.495 147.446 127.599 148.058 128.373L269.439 281.763C270.475 283.073 269.542 285 267.872 285H195.991C195.39 285 194.822 284.73 194.442 284.264L105.259 174.787Z" fill="url(#paint0_linear)"/>
<defs>
<linearGradient id="paint0_linear" x1="136" y1="0" x2="136" y2="285" gradientUnits="userSpaceOnUse">
<stop stop-color="#C12D63"/>
<stop offset="1" stop-color="#833882"/>
</linearGradient>
</defs>
</svg>
