<svg width="106" height="114" viewBox="0 0 106 114" fill="none" xmlns="http://www.w3.org/2000/svg">
<path d="M42.6584 70.471C41.9004 69.5405 40.499 69.4837 39.6682 70.3498L26.5886 83.9861C26.2318 84.358 26.0326 84.8534 26.0326 85.3687V111.188C26.0326 112.291 25.1384 113.185 24.0352 113.185H1.99739C0.89426 113.185 0 112.291 0 111.188V1.99739C0 0.894265 0.894261 0 1.99739 0H24.0353C25.1384 0 26.0326 0.894262 26.0326 1.99739V47.8636C26.0326 49.6689 28.2375 50.5479 29.4796 49.2378L75.5668 0.623207C75.944 0.225344 76.4681 0 77.0163 0H100.679C102.423 0 103.33 2.07945 102.142 3.35723L59.5381 49.1931C58.8668 49.9152 58.8229 51.0191 59.4347 51.7923L105.45 109.949C106.486 111.258 105.554 113.185 103.884 113.185H78.4003C77.7997 113.185 77.231 112.915 76.8517 112.449L42.6584 70.471Z" fill="url(#paint0_linear)"/>
<defs>
<linearGradient id="paint0_linear" x1="54.0056" y1="0" x2="54.0056" y2="113.185" gradientUnits="userSpaceOnUse">
<stop stop-color="#C12D63"/>
<stop offset="1" stop-color="#833882"/>
</linearGradient>
</defs>
</svg>
