<svg width="39" height="39" viewBox="0 0 39 39" fill="none" xmlns="http://www.w3.org/2000/svg">
<path fill-rule="evenodd" clip-rule="evenodd" d="M2.90983 2.49821C0.411621 4.99641 0.411621 9.01722 0.411621 17.0588V21.3235C0.411621 29.3651 0.411621 33.3859 2.90983 35.8841C5.40804 38.3824 9.42884 38.3824 17.4704 38.3824H21.7352C29.7768 38.3824 33.7976 38.3824 36.2958 35.8841C38.794 33.3859 38.794 29.3651 38.794 21.3235V17.0588C38.794 9.01722 38.794 4.99641 36.2958 2.49821C33.7976 0 29.7768 0 21.7352 0H17.4704C9.42884 0 5.40804 0 2.90983 2.49821ZM31.8892 15.2414C32.8647 16.5151 34.2598 18.3365 34.4095 18.4927C34.6224 18.7148 34.5514 18.8999 34.1966 19.011C33.8773 19.122 30.9321 19.9364 30.116 20.1585C31.0126 21.3964 32.497 23.493 33.2878 24.6099C33.5611 24.996 33.7516 25.265 33.8063 25.341C34.0867 25.7433 33.8477 25.8565 33.4657 26.0376L33.4515 26.0444C33.0611 26.2295 24.3677 29.487 23.7645 29.6721C23.7313 29.682 23.699 29.6917 23.6673 29.7012C22.9875 29.9056 22.6424 30.0094 22.1677 29.302C21.8607 28.8651 20.5655 26.4354 19.5432 24.5175C19.2659 23.9973 19.0087 23.5148 18.7968 23.1199C16.9161 23.6382 13.5097 24.5637 12.5162 24.8228C11.5581 25.0449 11.1323 24.4526 10.9904 24.0824C10.9294 23.9234 9.84651 21.4817 8.60296 18.6779C6.95231 14.9562 5.01864 10.5963 4.81627 10.0896C4.46143 9.20118 4.85175 9.05311 5.20659 9.01609C5.40935 9.01609 7.12991 8.87105 8.68663 8.73981C9.85418 8.64138 10.9296 8.55072 11.2033 8.53486C11.8202 8.4991 11.9075 8.63603 12.1685 9.04572C12.1777 9.06018 12.1872 9.07498 12.1968 9.09013L19.3645 21.6392L28.4128 19.3811C28.1126 18.9113 27.1643 17.5085 26.414 16.3985C25.9228 15.6719 25.5164 15.0708 25.4322 14.939C25.1838 14.5688 25.4322 14.4207 25.8225 14.3467C26.0421 14.3259 27.2272 14.1176 28.2789 13.9328C29.097 13.7891 29.8344 13.6595 29.9741 13.6433C30.0084 13.6394 30.0414 13.6345 30.0737 13.6298C30.3424 13.5906 30.5597 13.5589 31.0031 14.0876C31.1401 14.2634 31.4772 14.7036 31.8892 15.2414ZM15.4521 22.6472C16.7182 22.3303 17.9292 22.0273 17.9806 22.0094C18.0871 21.9724 18.1581 21.8984 18.0161 21.7133C17.9097 21.5282 11.2743 9.57136 11.2743 9.57136C11.2578 9.54555 11.247 9.52374 11.238 9.50547C11.2083 9.4451 11.1975 9.42329 11.0614 9.42329C10.9782 9.42329 9.32437 9.57572 7.95428 9.702C6.98548 9.79129 6.15855 9.86751 6.12916 9.86751C6.05819 9.86751 6.05819 10.0156 6.12916 10.1637C6.19115 10.2499 8.23891 14.6552 9.95247 18.3415C11.1812 20.9849 12.2382 23.2587 12.2678 23.305C12.2678 23.4161 12.2678 23.4531 12.5517 23.3791C12.6801 23.3408 14.0976 22.9861 15.4521 22.6472ZM32.2812 24.8535C32.2695 24.8327 32.2568 24.8103 32.245 24.7858C32.2242 24.7531 31.9702 24.3909 31.6183 23.8891C30.7735 22.6841 29.3646 20.6746 29.2644 20.4917C29.1285 20.2791 29.0577 20.3039 28.8652 20.3713C28.8566 20.3743 28.8477 20.3774 28.8386 20.3806L20.0032 22.7868C20.0032 22.7868 22.7 27.6361 22.9129 27.9693C23.1258 28.3025 23.2322 28.2654 23.4096 28.1914C23.4825 28.161 24.925 27.6501 26.6175 27.0508C29.0473 26.1903 31.9922 25.1474 32.1386 25.0819C32.3755 25.0201 32.3405 24.9583 32.2812 24.8535ZM29.3709 19.159C29.3709 19.159 32.5999 18.3076 32.8128 18.2706C33.0257 18.2336 33.1676 18.1595 33.0611 18.0485C32.9973 17.9818 32.1542 16.8624 31.4516 15.9296C30.9832 15.3077 30.5773 14.7687 30.5063 14.6798C30.334 14.4282 30.2286 14.4559 30.0927 14.4916C30.0887 14.4926 30.0846 14.4937 30.0805 14.4948C29.9925 14.5177 28.7995 14.7399 27.8633 14.9143C27.2897 15.0211 26.8125 15.11 26.7451 15.1241C26.5677 15.1611 26.6386 15.2721 26.7096 15.3832L29.3709 19.159Z" fill="#9D9DAA"/>
</svg>
