<svg width="39" height="39" viewBox="0 0 39 39" fill="none" xmlns="http://www.w3.org/2000/svg">
<path fill-rule="evenodd" clip-rule="evenodd" d="M2.67472 2.49821C0.176514 4.99641 0.176514 9.01722 0.176514 17.0588V21.3235C0.176514 29.3651 0.176514 33.3859 2.67472 35.8841C5.17293 38.3824 9.19373 38.3824 17.2353 38.3824H21.5C29.5417 38.3824 33.5625 38.3824 36.0607 35.8841C38.5589 33.3859 38.5589 29.3651 38.5589 21.3235V17.0588C38.5589 9.01722 38.5589 4.99641 36.0607 2.49821C33.5625 0 29.5417 0 21.5 0H17.2353C9.19373 0 5.17293 0 2.67472 2.49821ZM31.3767 26.9218C29.8251 26.8831 28.6226 27.0383 27.614 27.4649C27.5407 27.4942 27.4562 27.5161 27.3704 27.5384C27.1155 27.6046 26.8477 27.6742 26.8187 27.9498C26.9068 28.0379 26.9511 28.1573 26.9978 28.283C27.0334 28.3788 27.0704 28.4783 27.1291 28.5704C27.3621 28.9583 27.7691 29.482 28.1376 29.7537C28.5449 30.064 28.9523 30.3742 29.3789 30.6458C29.7501 30.8742 30.1447 31.056 30.5375 31.2368L30.5376 31.2369C30.9451 31.4245 31.3506 31.6113 31.7259 31.8483C31.9698 32.0034 32.2136 32.1839 32.4573 32.3644C32.6402 32.4998 32.823 32.6352 33.0059 32.7599C33.0859 32.818 33.155 32.8898 33.2244 32.962L33.2245 32.962C33.3402 33.0823 33.4568 33.2036 33.6266 33.2641V33.206C33.5565 33.1159 33.5122 33.0052 33.4671 32.8924C33.4249 32.7867 33.3819 32.6792 33.3162 32.5853C33.2188 32.4878 33.1213 32.3952 33.0238 32.3026L33.0233 32.3021C32.927 32.2106 32.8306 32.1191 32.7343 32.0228C32.1719 31.2665 31.4737 30.607 30.7173 30.064C30.5569 29.9536 30.3472 29.833 30.1201 29.7023C29.4686 29.3273 28.6737 28.8699 28.4868 28.3377C28.4868 28.3377 28.4673 28.3184 28.448 28.299C28.8303 28.2642 29.275 28.136 29.6565 28.0259L29.7863 27.9886C30.1178 27.9008 30.4345 27.867 30.7538 27.8329C31.0698 27.7991 31.3882 27.7651 31.7259 27.6783C32.0361 27.6007 32.3465 27.5037 32.6567 27.4067V27.2322C32.4971 27.0725 32.3577 26.8884 32.2182 26.7041L32.2181 26.7041L32.2181 26.7041C32.0527 26.4856 31.887 26.2668 31.6871 26.0879C30.6979 25.2343 29.6116 24.4004 28.4868 23.7022C28.1212 23.4663 27.6911 23.2807 27.2662 23.0972C26.9922 22.979 26.7204 22.8617 26.4695 22.7324C26.3918 22.6935 26.2967 22.6611 26.1995 22.6279C26.0058 22.5619 25.8036 22.493 25.7133 22.3639C25.4619 22.0568 25.2909 21.6793 25.1208 21.3038C25.0546 21.1577 24.9886 21.0118 24.918 20.8705C24.3557 19.8036 23.8124 18.6206 23.3275 17.4957C23.2003 17.2201 23.0912 16.9445 22.9832 16.6717L22.9832 16.6717C22.7947 16.1957 22.6097 15.7284 22.3384 15.2846C20.3407 11.9874 18.1684 9.98965 14.8324 8.0306C14.1773 7.65885 13.409 7.48098 12.5867 7.29058L12.5864 7.2905C12.508 7.27235 12.4291 7.25408 12.3498 7.23552C12.1074 7.22577 11.865 7.21123 11.6226 7.19668C11.3801 7.18213 11.1376 7.16758 10.8952 7.15782C10.7111 7.07729 10.527 6.91493 10.3511 6.75971C10.2303 6.65321 10.1134 6.55006 10.0029 6.47902C8.89754 5.7807 6.0462 4.26802 5.23161 6.26575C4.79667 7.31266 5.61925 8.34618 6.16607 9.03322C6.2777 9.17347 6.37784 9.29929 6.45344 9.40783C6.52329 9.50225 6.59747 9.59928 6.67322 9.69837C6.95532 10.0674 7.25922 10.4649 7.44272 10.8624C7.51229 11.0313 7.55637 11.2053 7.60108 11.3819L7.60109 11.3819C7.64364 11.5499 7.68676 11.7202 7.75297 11.8904C7.82722 12.0944 7.90035 12.3041 7.97422 12.5158C8.20919 13.1894 8.45164 13.8844 8.76164 14.4895C8.97502 14.8967 9.20768 15.3233 9.47924 15.6919C9.5308 15.7627 9.5952 15.8208 9.66035 15.8795C9.79128 15.9975 9.92525 16.1182 9.96418 16.3513C9.78718 16.6043 9.7173 16.9397 9.64705 17.2769C9.60956 17.4568 9.57196 17.6373 9.51793 17.806C8.81972 19.9977 9.0914 22.713 10.0805 24.3228C10.3907 24.8075 11.1278 25.8746 12.117 25.4672C12.741 25.2176 12.8198 24.5814 12.906 23.8846C12.9404 23.6067 12.976 23.3192 13.0478 23.0428C13.0691 22.9582 13.0775 22.8839 13.0851 22.8161C13.0985 22.6972 13.1097 22.5985 13.1837 22.4997V22.5386C13.2509 22.6727 13.318 22.8057 13.3848 22.9382C13.5883 23.3416 13.7891 23.7395 13.9789 24.1483C14.5803 25.0986 15.6275 26.0879 16.5003 26.7474C16.6712 26.8755 16.8291 27.0376 16.9892 27.2021C17.2652 27.4856 17.548 27.776 17.9163 27.911V27.8527H17.8774C17.8009 27.738 17.6993 27.6652 17.5946 27.5902L17.5945 27.5902C17.5399 27.5511 17.4845 27.5114 17.4314 27.4648C17.0823 27.1159 16.6943 26.6891 16.4228 26.3012C15.6083 25.2149 14.8905 24.0125 14.2505 22.7711C13.9622 22.2125 13.7071 21.6034 13.4702 21.0375L13.4165 20.9093C13.3739 20.8241 13.3469 20.7235 13.3203 20.6244C13.2741 20.4523 13.2292 20.2849 13.1062 20.2111C13.0044 20.3602 12.8861 20.5023 12.7662 20.6463L12.7662 20.6463C12.543 20.9144 12.314 21.1893 12.1752 21.5299C11.8838 22.1896 11.7986 22.9706 11.7085 23.7961C11.6847 24.0142 11.6605 24.2355 11.6322 24.4585C11.6105 24.464 11.598 24.4664 11.5902 24.4679C11.5827 24.4693 11.5797 24.4699 11.5775 24.4715C11.5767 24.4721 11.576 24.4727 11.5752 24.4736C11.5723 24.4771 11.5684 24.4835 11.5545 24.4975C10.9895 24.356 10.7621 23.813 10.5501 23.307C10.5293 23.2572 10.5086 23.2077 10.4877 23.1591C9.90577 21.7821 9.80878 19.571 10.3132 17.9806C10.339 17.9033 10.3808 17.7946 10.43 17.6666L10.4301 17.6666C10.6405 17.1197 10.9868 16.2196 10.7982 15.9053C10.7249 15.6733 10.5441 15.5028 10.3669 15.3358C10.2626 15.2375 10.1595 15.1403 10.0805 15.0325C9.8284 14.6639 9.55672 14.1986 9.38225 13.7911C9.16509 13.2845 8.99857 12.7525 8.83153 12.2188L8.83152 12.2188L8.83152 12.2188C8.64047 11.6084 8.44872 10.9958 8.17971 10.4163C7.98899 10.003 7.68121 9.57694 7.39478 9.18039C7.33164 9.09297 7.26953 9.00699 7.20994 8.92289C7.085 8.74533 6.95559 8.58559 6.82776 8.4278C6.57862 8.12027 6.33548 7.82015 6.14319 7.40999C6.04631 7.19673 5.91042 6.84757 6.0656 6.6148C6.10439 6.45962 6.18187 6.40154 6.33716 6.36274C6.58933 6.14926 7.30704 6.42082 7.55899 6.53721C8.2767 6.82795 8.87792 7.09974 9.47924 7.50698C9.56782 7.57028 9.65848 7.65217 9.75256 7.73714L9.75257 7.73715C9.94678 7.91257 10.1556 8.10116 10.3907 8.1665H10.7981C11.0839 8.22897 11.3861 8.24214 11.6859 8.25519C12.0371 8.27049 12.3848 8.28563 12.6988 8.37976C13.7269 8.70941 14.6577 9.19435 15.4918 9.71808C18.0327 11.3279 20.1272 13.6166 21.5432 16.3513C21.6738 16.6015 21.7617 16.8397 21.8513 17.0828L21.8513 17.0828C21.9214 17.2728 21.9926 17.4659 22.0862 17.6701C22.301 18.171 22.5426 18.6773 22.7827 19.1804C22.9982 19.632 23.2125 20.081 23.4051 20.5213C23.4434 20.6071 23.4816 20.6931 23.5197 20.7791C23.8871 21.6065 24.255 22.4351 24.7822 23.1204C24.987 23.4069 25.6241 23.5976 26.1661 23.7597C26.3942 23.828 26.6054 23.8912 26.7605 23.9544C26.9124 24.0227 27.0969 24.088 27.2862 24.155L27.2862 24.1551C27.5805 24.2593 27.8864 24.3676 28.0988 24.4974C28.7582 24.9045 29.4176 25.3703 30.0384 25.8162C30.1164 25.8748 30.2362 25.9493 30.3727 26.0342L30.3728 26.0342C30.7789 26.2868 31.3331 26.6315 31.3767 26.9218ZM11.5934 10.0654C11.2637 10.0654 11.0311 10.1044 10.7983 10.1625V10.2013H10.8371C10.9319 10.3907 11.0699 10.5441 11.2072 10.6965L11.2072 10.6965C11.2948 10.7938 11.3821 10.8907 11.4576 10.9965C11.5353 11.1518 11.6082 11.3071 11.681 11.4625L11.681 11.4626L11.681 11.4626C11.7537 11.6176 11.8263 11.7726 11.9039 11.9275C11.9231 11.908 11.9425 11.8887 11.9425 11.8887C12.2142 11.6947 12.3499 11.3844 12.3499 10.9189C12.2852 10.8435 12.2505 10.7681 12.2158 10.6926C12.188 10.6323 12.1602 10.572 12.1171 10.5116C12.0469 10.3944 11.9271 10.3127 11.809 10.2321L11.809 10.2321C11.7316 10.1792 11.6549 10.1269 11.5934 10.0654Z" fill="#9D9DAA"/>
</svg>
