<svg width="432" height="263" viewBox="0 0 432 263" fill="none" xmlns="http://www.w3.org/2000/svg">
<path d="M337.285 68.3684C336.847 68.3684 403.44 0 402.963 0C391.976 0.198169 351.216 0 351.216 0L215.881 141.176L80.5447 0C80.5447 0 39.7848 0.198169 28.7987 0C28.3807 0 94.9739 68.3684 94.4764 68.3684C42.3522 68.3684 0 110.955 0 163.49C0 216.024 42.3522 258.611 94.5958 258.611C140.57 258.611 188.535 218.026 216 190.322C243.406 218.065 291.37 258.611 337.404 258.611C389.648 258.611 432 216.024 432 163.49C432 110.955 389.528 68.3684 337.285 68.3684ZM97.5214 223.931C81.4222 223.931 65.9824 217.563 54.5986 206.228C43.2147 194.893 36.8193 179.52 36.8193 163.49C36.8193 147.459 43.2147 132.086 54.5986 120.751C65.9824 109.416 81.4222 103.048 97.5214 103.048C140.311 103.048 190.067 164.48 190.067 164.48C190.067 164.48 142.302 223.931 97.5214 223.931ZM334.359 223.931C289.579 223.931 241.813 164.48 241.813 164.48C241.813 164.48 291.569 103.048 334.359 103.048C350.458 103.048 365.898 109.416 377.282 120.751C388.666 132.086 395.061 147.459 395.061 163.49C395.061 179.52 388.666 194.893 377.282 206.228C365.898 217.563 350.458 223.931 334.359 223.931Z" fill="url(#paint0_linear)"/>
<path d="M237.131 241.07L215.838 219.869L193.814 241.799L215.107 263L237.131 241.07Z" fill="url(#paint1_linear)"/>
<defs>
<linearGradient id="paint0_linear" x1="216" y1="0" x2="216" y2="263" gradientUnits="userSpaceOnUse">
<stop stop-color="#C12D63"/>
<stop offset="1" stop-color="#833882"/>
</linearGradient>
<linearGradient id="paint1_linear" x1="216" y1="0" x2="216" y2="263" gradientUnits="userSpaceOnUse">
<stop stop-color="#C12D63"/>
<stop offset="1" stop-color="#833882"/>
</linearGradient>
</defs>
</svg>
