<svg width="39" height="39" viewBox="0 0 39 39" fill="none" xmlns="http://www.w3.org/2000/svg">
<path fill-rule="evenodd" clip-rule="evenodd" d="M2.7924 2.49821C0.294189 4.99641 0.294189 9.01722 0.294189 17.0588V21.3235C0.294189 29.3651 0.294189 33.3859 2.7924 35.8841C5.2906 38.3824 9.31141 38.3824 17.353 38.3824H21.6177C29.6593 38.3824 33.6801 38.3824 36.1783 35.8841C38.6765 33.3859 38.6765 29.3651 38.6765 21.3235V17.0588C38.6765 9.01722 38.6765 4.99641 36.1783 2.49821C33.6801 0 29.6593 0 21.6177 0H17.353C9.31141 0 5.2906 0 2.7924 2.49821ZM9.05814 15.2525L7.11772 24.7353H9.42193L9.90703 22.2768H12.0897C14.1514 22.3939 16.4555 20.7549 16.4555 17.9452C16.4555 16.3061 15.4852 15.3696 13.545 15.2525H9.05814ZM10.9984 17.0086L10.392 20.5208H10.3921H11.8473C12.9387 20.4037 13.9089 20.0525 14.0301 18.0622C14.0301 17.3598 13.4238 17.0086 12.5749 17.0086H10.9984ZM17.9449 12.7941L16.0047 22.2768H18.3089L19.4002 17.0086H21.2194C22.0681 17.0086 22.0681 17.3598 21.9469 17.9452L21.098 22.2768H23.5234L24.3723 17.4769C24.6148 16.3061 23.8872 15.3696 21.9468 15.2525H19.764L20.2491 12.7941H17.9449ZM25.3084 15.2525L23.3681 24.7353H25.6722L26.1573 22.2768H28.3402C30.4017 22.3939 32.706 20.7549 32.706 17.9452C32.706 16.3061 31.7357 15.3696 29.7953 15.2525H25.3084ZM27.2486 17.0086L26.6422 20.5208H26.6424H28.0977C29.1891 20.4037 30.1593 20.0525 30.2804 18.0622C30.2804 17.3598 29.6742 17.0086 28.8253 17.0086H27.2486Z" fill="#9D9DAA"/>
</svg>
