<svg width="39" height="39" viewBox="0 0 39 39" fill="none" xmlns="http://www.w3.org/2000/svg">
<path fill-rule="evenodd" clip-rule="evenodd" d="M0.441162 17.0588C0.441162 9.01722 0.441162 4.99641 2.93937 2.49821C5.43758 0 9.45838 0 17.5 0H21.7647C29.8063 0 33.8271 0 36.3253 2.49821C38.8235 4.99641 38.8235 9.01722 38.8235 17.0588V21.3235C38.8235 29.3651 38.8235 33.3859 36.3253 35.8841C33.8271 38.3824 29.8063 38.3824 21.7647 38.3824H17.5C9.45838 38.3824 5.43758 38.3824 2.93937 35.8841C0.441162 33.3859 0.441162 29.3651 0.441162 21.3235V17.0588ZM2.14704 15.3529C2.14704 8.91966 2.14704 5.70301 4.14561 3.70445C6.14418 1.70588 9.36082 1.70588 15.7941 1.70588H23.4706C29.9039 1.70588 33.1205 1.70588 35.1191 3.70445C37.1176 5.70301 37.1176 8.91966 37.1176 15.3529V23.0294C37.1176 29.4627 37.1176 32.6793 35.1191 34.6779C33.1205 36.6765 29.9039 36.6765 23.4706 36.6765H15.7941C9.36082 36.6765 6.14418 36.6765 4.14561 34.6779C2.14704 32.6793 2.14704 29.4627 2.14704 23.0294V15.3529ZM10.1867 9.9757C10.0529 9.9757 9.82352 10.056 9.82352 10.163V27.6003C9.82352 27.7342 9.87702 27.7877 10.0108 27.7877H12.514C12.6478 27.7877 12.7013 27.7342 12.7013 27.6003V21.3714C12.8958 21.3714 13.0462 21.377 13.2101 21.383L13.2103 21.3831C13.4069 21.3903 13.6231 21.3983 13.9586 21.3983C17.6234 21.3983 20.6111 19.6328 20.6111 15.5131C20.6111 12.3565 18.8608 9.89545 14.3666 9.89545C12.7617 9.89545 11.23 9.9222 10.1867 9.9757ZM14.0121 18.8033C13.37 18.8033 13.0758 18.8033 12.7013 18.7767V18.7766V12.5169C12.9955 12.49 13.6108 12.4634 14.2528 12.4634C16.4196 12.4634 17.6952 13.5065 17.6952 15.5665C17.6952 18.1346 15.9114 18.8033 14.0121 18.8033ZM26.6558 16.8507C25.3718 16.8507 24.9438 17.4927 24.9438 18.0277C24.9438 18.6162 25.238 19.0173 26.9502 19.9003C29.4916 21.1308 30.2941 22.3079 30.2941 24.0465C30.2941 26.6415 28.3145 28.0326 25.6395 28.0326C24.2217 28.0326 23.0149 27.7381 22.3194 27.337C22.2124 27.2835 22.1857 27.2033 22.1857 27.0695V24.6887C22.1857 24.5282 22.2659 24.4747 22.3729 24.5548C23.3895 25.2234 24.5693 25.5178 25.6395 25.5178C26.9235 25.5178 27.4585 24.9828 27.4585 24.2605C27.4585 23.672 27.084 23.1636 25.4522 22.3077C23.1516 21.2108 22.1886 20.0872 22.1886 18.2148C22.1886 16.1282 23.8204 14.3893 26.6558 14.3893C28.0469 14.3893 29.029 14.6033 29.564 14.8439C29.6978 14.9243 29.7246 15.0579 29.7246 15.1649V17.3857C29.7246 17.5193 29.6443 17.5997 29.4838 17.5462C28.7617 17.1182 27.6993 16.8507 26.6558 16.8507Z" fill="#9D9DAA"/>
</svg>
