<svg width="40" height="39" viewBox="0 0 40 39" fill="none" xmlns="http://www.w3.org/2000/svg">
<path fill-rule="evenodd" clip-rule="evenodd" d="M22.0589 0.852941H17.7942C13.7493 0.852941 10.8014 0.854753 8.54874 1.15761C6.32065 1.45717 4.90089 2.03712 3.83668 3.10133C2.77247 4.16554 2.19252 5.5853 1.89296 7.81339C1.5901 10.066 1.58829 13.0139 1.58829 17.0588V21.3235C1.58829 25.3684 1.5901 28.3163 1.89296 30.569C2.19252 32.7971 2.77247 34.2168 3.83668 35.281C4.90089 36.3452 6.32065 36.9252 8.54874 37.2247C10.8014 37.5276 13.7493 37.5294 17.7942 37.5294H22.0589C26.1038 37.5294 29.0517 37.5276 31.3043 37.2247C33.5324 36.9252 34.9522 36.3452 36.0164 35.281C37.0806 34.2168 37.6605 32.7971 37.9601 30.569C38.263 28.3163 38.2648 25.3684 38.2648 21.3235V17.0588C38.2648 13.0139 38.263 10.066 37.9601 7.81339C37.6605 5.5853 37.0806 4.16554 36.0164 3.10133C34.9522 2.03712 33.5324 1.45717 31.3043 1.15761C29.0517 0.854753 26.1038 0.852941 22.0589 0.852941ZM3.23356 2.49821C0.735352 4.99641 0.735352 9.01722 0.735352 17.0588V21.3235C0.735352 29.3651 0.735352 33.3859 3.23356 35.8841C5.73177 38.3824 9.75257 38.3824 17.7942 38.3824H22.0589C30.1005 38.3824 34.1213 38.3824 36.6195 35.8841C39.1177 33.3859 39.1177 29.3651 39.1177 21.3235V17.0588C39.1177 9.01722 39.1177 4.99641 36.6195 2.49821C34.1213 0 30.1005 0 22.0589 0H17.7942C9.75257 0 5.73177 0 3.23356 2.49821Z" fill="#9D9DAA"/>
<path d="M19.5558 5.97046C12.5481 5.97046 12.9856 9.00268 12.9856 9.00268L12.9934 12.1441H19.6808V13.0873H10.3373C10.3373 13.0873 5.85303 12.5799 5.85303 19.6349C5.85303 26.6902 9.767 26.4399 9.767 26.4399H12.1029V23.166C12.1029 23.166 11.9769 19.2608 15.9544 19.2608H22.587C22.587 19.2608 26.3135 19.3208 26.3135 15.6673V9.62638C26.3135 9.62638 26.8794 5.97046 19.5558 5.97046ZM15.8684 8.08303C16.0264 8.08289 16.183 8.11385 16.329 8.17412C16.475 8.23439 16.6077 8.32281 16.7194 8.4343C16.8312 8.54579 16.9198 8.67818 16.9802 8.82388C17.0406 8.96958 17.0716 9.12574 17.0715 9.28341C17.0716 9.44109 17.0406 9.59724 16.9802 9.74294C16.9198 9.88864 16.8312 10.021 16.7194 10.1325C16.6077 10.244 16.475 10.3324 16.329 10.3927C16.183 10.453 16.0264 10.4839 15.8684 10.4838C15.7104 10.4839 15.5539 10.453 15.4079 10.3927C15.2618 10.3324 15.1292 10.244 15.0174 10.1325C14.9057 10.021 14.8171 9.88864 14.7567 9.74294C14.6962 9.59724 14.6652 9.44109 14.6654 9.28341C14.6652 9.12574 14.6962 8.96958 14.7567 8.82388C14.8171 8.67818 14.9057 8.54579 15.0174 8.4343C15.1292 8.32281 15.2618 8.23439 15.4079 8.17412C15.5539 8.11385 15.7104 8.08289 15.8684 8.08303Z" fill="#7F7F8E"/>
<path d="M19.4444 33.2648C26.4522 33.2648 26.0146 30.2326 26.0146 30.2326L26.0068 27.0912H19.3193V26.148H28.6628C28.6628 26.148 33.1471 26.6555 33.1471 19.6002C33.1471 12.5451 29.2331 12.7953 29.2331 12.7953H26.8973V16.0691C26.8973 16.0691 27.0232 19.9744 23.0458 19.9744H16.4131C16.4131 19.9744 12.6867 19.9143 12.6867 23.5679V29.609C12.6867 29.609 12.1208 33.2648 19.4443 33.2648H19.4444ZM23.1318 31.1524C22.9738 31.1526 22.8173 31.1216 22.6713 31.0613C22.5252 31.0011 22.3926 30.9126 22.2808 30.8012C22.1691 30.6897 22.0805 30.5573 22.0201 30.4116C21.9596 30.2659 21.9286 30.1097 21.9288 29.952C21.9286 29.7944 21.9596 29.6382 22.02 29.4925C22.0804 29.3468 22.169 29.2144 22.2808 29.1029C22.3925 28.9914 22.5252 28.9029 22.6712 28.8427C22.8173 28.7824 22.9738 28.7514 23.1318 28.7516C23.2898 28.7514 23.4463 28.7824 23.5924 28.8426C23.7384 28.9029 23.8711 28.9913 23.9828 29.1028C24.0946 29.2143 24.1832 29.3467 24.2436 29.4924C24.304 29.6381 24.335 29.7943 24.3349 29.9519C24.335 30.1096 24.304 30.2658 24.2436 30.4115C24.1832 30.5572 24.0946 30.6895 23.9828 30.801C23.8711 30.9125 23.7384 31.0009 23.5924 31.0612C23.4463 31.1215 23.2898 31.1525 23.1318 31.1523V31.1524Z" fill="#9D9DAA"/>
</svg>
