<svg width="40" height="39" viewBox="0 0 40 39" fill="none" xmlns="http://www.w3.org/2000/svg">
<path fill-rule="evenodd" clip-rule="evenodd" d="M22.1766 0.852941H17.9119C13.8669 0.852941 10.9191 0.854753 8.66642 1.15761C6.43832 1.45717 5.01857 2.03712 3.95435 3.10133C2.89014 4.16554 2.3102 5.5853 2.01064 7.81339C1.70778 10.066 1.70597 13.0139 1.70597 17.0588V21.3235C1.70597 25.3684 1.70778 28.3163 2.01064 30.569C2.3102 32.7971 2.89014 34.2168 3.95435 35.281C5.01857 36.3452 6.43832 36.9252 8.66642 37.2247C10.9191 37.5276 13.8669 37.5294 17.9118 37.5294H22.1766C26.2215 37.5294 29.1694 37.5276 31.422 37.2247C33.6501 36.9252 35.0698 36.3452 36.1341 35.281C37.1983 34.2168 37.7782 32.7971 38.0778 30.569C38.3806 28.3163 38.3824 25.3684 38.3824 21.3235V17.0588C38.3824 13.0139 38.3806 10.066 38.0778 7.81339C37.7782 5.5853 37.1983 4.16554 36.1341 3.10133C35.0698 2.03712 33.6501 1.45717 31.422 1.15761C29.1694 0.854753 26.2215 0.852941 22.1766 0.852941ZM3.35123 2.49821C0.853027 4.99641 0.853027 9.01722 0.853027 17.0588V21.3235C0.853027 29.3651 0.853027 33.3859 3.35123 35.8841C5.84944 38.3824 9.87024 38.3824 17.9118 38.3824H22.1766C30.2182 38.3824 34.239 38.3824 36.7372 35.8841C39.2354 33.3859 39.2354 29.3651 39.2354 21.3235V17.0588C39.2354 9.01722 39.2354 4.99641 36.7372 2.49821C34.239 0 30.2182 0 22.1766 0H17.9119C9.87024 0 5.84944 0 3.35123 2.49821Z" fill="#9D9DAA"/>
<path d="M32.5753 25.3705C31.1241 26.1269 23.6065 29.2179 22.0061 30.0522C20.4056 30.8867 19.5165 30.8786 18.2522 30.2742C16.9879 29.6698 8.98785 26.4383 7.54673 25.7495C6.82654 25.4053 6.44775 25.1147 6.44775 24.8402V22.0916C6.44775 22.0916 16.8629 19.8243 18.5443 19.221C20.2256 18.6178 20.8089 18.596 22.2397 19.1201C23.6708 19.6444 32.2266 21.1881 33.6407 21.706L33.6401 24.4157C33.6403 24.6875 33.314 24.9855 32.5753 25.3705Z" fill="#4B4B56"/>
<path d="M32.5747 22.6382C31.1236 23.3943 23.6063 26.4854 22.0058 27.3197C20.4055 28.1543 19.5164 28.1461 18.2521 27.5417C16.9878 26.9377 8.98804 23.7057 7.54703 23.0172C6.10601 22.3284 6.07585 21.8543 7.49137 21.3001C8.90689 20.7456 16.8627 17.6242 18.5443 17.021C20.2256 16.418 20.8089 16.396 22.2397 16.9203C23.6706 17.4444 31.1432 20.4187 32.5571 20.9366C33.9716 21.455 34.0258 21.8819 32.5747 22.6382Z" fill="#9D9DAA"/>
<path d="M32.5753 20.9234C31.1241 21.6799 23.6065 24.7708 22.0061 25.6055C20.4056 26.4396 19.5165 26.4316 18.2522 25.8271C16.9878 25.2231 8.98785 21.9912 7.54673 21.3024C6.82654 20.9582 6.44775 20.668 6.44775 20.3934V17.6445C6.44775 17.6445 16.8629 15.3773 18.5443 14.7741C20.2256 14.1708 20.8089 14.1489 22.2397 14.6732C23.6709 15.1974 32.2267 16.7407 33.6407 17.2587L33.6401 19.9688C33.6403 20.2404 33.314 20.5384 32.5753 20.9234Z" fill="#4B4B56"/>
<path d="M32.5747 18.1912C31.1236 18.9475 23.6063 22.0383 22.0058 22.8729C20.4055 23.7072 19.5164 23.699 18.2521 23.0946C16.9878 22.4906 8.98804 19.2587 7.54703 18.5702C6.10601 17.8815 6.07585 17.4074 7.49137 16.8529C8.90689 16.2987 16.8628 13.1771 18.5443 12.574C20.2256 11.9709 20.8089 11.949 22.2397 12.4732C23.6706 12.9973 31.1432 15.9714 32.5571 16.4895C33.9716 17.0078 34.0258 17.4349 32.5747 18.1912Z" fill="#9D9DAA"/>
<path d="M32.5753 16.3106C31.1241 17.0669 23.6065 20.158 22.0061 20.9927C20.4056 21.827 19.5165 21.8188 18.2522 21.2144C16.9878 20.6103 8.98785 17.3784 7.54673 16.6898C6.82654 16.3454 6.44775 16.055 6.44775 15.7808V13.0317C6.44775 13.0317 16.8629 10.7646 18.5443 10.1615C20.2256 9.55817 20.8089 9.5365 22.2397 10.0606C23.6709 10.5848 32.2267 12.1281 33.6407 12.6462L33.6401 15.3561C33.6403 15.6275 33.314 15.9256 32.5753 16.3106Z" fill="#4B4B56"/>
<path d="M32.5749 13.5785C31.1238 14.3348 23.6065 17.4259 22.006 18.2601C20.4057 19.0944 19.5166 19.0862 18.2523 18.4821C16.9881 17.8777 8.98823 14.646 7.54732 13.9574C6.1062 13.2689 6.07614 12.7946 7.49156 12.2402C8.90708 11.6859 16.863 8.56479 18.5445 7.96145C20.2258 7.35821 20.8091 7.33654 22.2399 7.86075C23.6708 8.38496 31.1434 11.3591 32.5573 11.8771C33.9718 12.3951 34.026 12.8222 32.5749 13.5785Z" fill="#9D9DAA"/>
<path d="M23.3671 10.9042L21.0292 11.1469L20.5058 12.4063L19.6605 11.0009L16.9608 10.7583L18.9752 10.0319L18.3708 8.91675L20.2568 9.65436L22.0348 9.07226L21.5542 10.2253L23.3671 10.9042ZM20.3662 17.0139L16.0029 15.2042L22.2552 14.2444L20.3662 17.0139ZM14.3169 11.6042C16.1625 11.6042 17.6586 12.1842 17.6586 12.8995C17.6586 13.615 16.1625 14.1948 14.3169 14.1948C12.4712 14.1948 10.9751 13.6149 10.9751 12.8995C10.9751 12.1842 12.4712 11.6042 14.3169 11.6042Z" fill="#646472"/>
<path d="M26.1304 11.2489L29.8307 12.7111L26.1336 14.172L26.1304 11.2488" fill="#4B4B56"/>
<path d="M22.0364 12.8681L26.1302 11.2488L26.1334 14.1719L25.732 14.3289L22.0364 12.8681Z" fill="#646472"/>
</svg>
