<svg width="417" height="261" viewBox="0 0 417 261" fill="none" xmlns="http://www.w3.org/2000/svg">
<path opacity="0.2" d="M414.245 0C415.604 0 416.566 1.32688 416.144 2.61813L332.112 259.623C331.844 260.445 331.078 261 330.214 261H268.272C267.406 261 266.639 260.443 266.372 259.619L211.301 90.0229C210.706 88.1914 208.12 88.1791 207.508 90.0048L150.636 259.638C150.364 260.451 149.601 261 148.743 261H87.1569C86.2938 261 85.5284 260.446 85.2592 259.626L0.860583 2.62059C0.43639 1.32887 1.39867 0 2.75826 0H61.1492C62.0172 0 62.7858 0.560538 63.0511 1.38697L119.625 177.648C120.214 179.485 122.807 179.502 123.42 177.673L182.516 1.36261C182.789 0.548606 183.552 0 184.41 0H237.417C238.284 0 239.052 0.559316 239.318 1.38449L296.613 179.095C297.206 180.936 299.808 180.943 300.411 179.106L358.787 1.3741C359.057 0.554215 359.822 0 360.685 0H414.245Z" fill="url(#paint0_linear)"/>
<defs>
<linearGradient id="paint0_linear" x1="208.5" y1="0" x2="208.5" y2="261" gradientUnits="userSpaceOnUse">
<stop stop-color="#C12D63"/>
<stop offset="1" stop-color="#833882"/>
</linearGradient>
</defs>
</svg>
