<svg width="270" height="170" viewBox="0 0 270 170" fill="none" xmlns="http://www.w3.org/2000/svg">
<path d="M266.619 0C268.66 0 270.105 1.9933 269.471 3.93278L215.819 167.933C215.416 169.166 214.265 170 212.968 170H175.065C173.766 170 172.614 169.163 172.212 167.927L138.293 63.5275C137.4 60.7773 133.516 60.7588 132.596 63.5004L97.5577 167.954C97.1477 169.176 96.0027 170 94.7135 170H57.0292C55.7332 170 54.5837 169.168 54.1791 167.936L0.293411 3.93647C-0.344087 1.99626 1.10124 0 3.1435 0H37.6125C38.916 0 40.0703 0.841683 40.4688 2.08272L75.3769 110.784C76.2627 113.542 80.1564 113.567 81.0775 110.82L117.557 2.04611C117.967 0.823744 119.112 0 120.401 0H152.487C153.789 0 154.942 0.839848 155.342 2.07899L190.7 111.688C191.592 114.452 195.498 114.463 196.405 111.704L232.436 2.0634C232.841 0.832201 233.99 0 235.286 0H266.619Z" fill="url(#paint0_linear)"/>
<defs>
<linearGradient id="paint0_linear" x1="-1" y1="0" x2="151.869" y2="244.372" gradientUnits="userSpaceOnUse">
<stop stop-color="#C12D63"/>
<stop offset="1" stop-color="#833882"/>
</linearGradient>
</defs>
</svg>
