<svg width="39" height="39" viewBox="0 0 39 39" fill="none" xmlns="http://www.w3.org/2000/svg">
<path fill-rule="evenodd" clip-rule="evenodd" d="M17.6765 0.852941H21.9412C25.9861 0.852941 28.934 0.854753 31.1866 1.15761C33.4147 1.45717 34.8345 2.03712 35.8987 3.10133C36.9629 4.16554 37.5429 5.5853 37.8424 7.81339C38.1453 10.066 38.1471 13.0139 38.1471 17.0588V21.3235C38.1471 25.3684 38.1453 28.3163 37.8424 30.569C37.5429 32.7971 36.9629 34.2168 35.8987 35.281C34.8345 36.3452 33.4147 36.9252 31.1866 37.2247C28.934 37.5276 25.9861 37.5294 21.9412 37.5294H17.6765C13.6316 37.5294 10.6837 37.5276 8.43107 37.2247C6.20297 36.9252 4.78322 36.3452 3.719 35.281C2.65479 34.2168 2.07485 32.7971 1.77529 30.569C1.47243 28.3163 1.47062 25.3684 1.47062 21.3235V17.0588C1.47062 13.0139 1.47243 10.066 1.77529 7.81339C2.07485 5.5853 2.65479 4.16554 3.719 3.10133C4.78322 2.03712 6.20297 1.45717 8.43107 1.15761C10.6837 0.854753 13.6316 0.852941 17.6765 0.852941ZM0.617676 17.0588C0.617676 9.01722 0.617676 4.99641 3.11588 2.49821C5.61409 0 9.63489 0 17.6765 0H21.9412C29.9828 0 34.0036 0 36.5018 2.49821C39 4.99641 39 9.01722 39 17.0588V21.3235C39 29.3651 39 33.3859 36.5018 35.8841C34.0036 38.3824 29.9828 38.3824 21.9412 38.3824H17.6765C9.63489 38.3824 5.61409 38.3824 3.11588 35.8841C0.617676 33.3859 0.617676 29.3651 0.617676 21.3235V17.0588ZM19.8197 30.7059L29.7872 25.2281L26.0209 23.1242L19.8197 26.4393V30.7059ZM30.4706 13.1827V24.6292L30.4687 24.6273L26.8234 22.5859V15.2297L30.4706 13.1827ZM18.9353 30.7021L8.97752 25.2281L12.7322 23.1242L18.9353 26.4393V30.7021ZM8.29415 13.1827V24.6292L11.9414 22.5859V15.2297L8.29415 13.1827ZM18.945 6.82353L8.72174 12.4416L12.3417 14.4735L12.3944 14.445L18.945 10.948V6.82353ZM19.8197 6.82353L30.0391 12.4416H30.043L26.4231 14.4716L26.3704 14.4431L19.8197 10.948V6.82353ZM12.8161 22.1954L18.945 25.4688V19.1438L12.8161 15.7169V22.1954ZM25.9486 22.1992L19.8197 25.4688V19.1438L25.9486 15.7169V22.1992ZM19.3824 11.6872L13.232 14.9739L19.3824 18.4159L25.5327 14.9739L19.3824 11.6872Z" fill="#9D9DAA"/>
</svg>
