<svg width="803" height="700" viewBox="0 0 803 700" fill="none" xmlns="http://www.w3.org/2000/svg">
<path opacity="0.2" fill-rule="evenodd" clip-rule="evenodd" d="M9.96417 -271.472C8.77546 -270.318 8.74745 -268.418 9.90163 -267.23L608.496 349.279L0.87868 956.896C-0.292893 958.068 -0.292894 959.967 0.878679 961.139L150.785 1111.05C151.957 1112.22 153.856 1112.22 155.028 1111.05L760.373 505.701L1356.73 1119.9C1357.88 1121.09 1359.78 1121.12 1360.97 1119.97L1513.07 972.285C1514.26 971.131 1514.29 969.232 1513.13 968.043L914.539 351.535L1522.16 -256.083C1523.33 -257.254 1523.33 -259.154 1522.16 -260.325L1372.25 -410.232C1371.08 -411.404 1369.18 -411.404 1368.01 -410.232L762.662 195.113L166.306 -419.09C165.152 -420.279 163.253 -420.307 162.064 -419.152L9.96417 -271.472Z" fill="url(#paint0_linear)"/>
<defs>
<linearGradient id="paint0_linear" x1="761.518" y1="-420" x2="761.518" y2="1120.81" gradientUnits="userSpaceOnUse">
<stop stop-color="#C12D63"/>
<stop offset="1" stop-color="#833882"/>
</linearGradient>
</defs>
</svg>
